<?xml version="1.0" encoding="utf-8"?>
<!-- Generator: Adobe Illustrator 16.0.0, SVG Export Plug-In . SVG Version: 6.00 Build 0)  -->
<!DOCTYPE svg PUBLIC "-//W3C//DTD SVG 1.1//EN" "http://www.w3.org/Graphics/SVG/1.1/DTD/svg11.dtd">
<svg version="1.1" id="Layer_1" xmlns="http://www.w3.org/2000/svg" xmlns:xlink="http://www.w3.org/1999/xlink" x="0px" y="0px"
	 width="476.765px" height="176.091px" viewBox="0 0 476.765 176.091" enable-background="new 0 0 476.765 176.091"
	 xml:space="preserve">
<g>
	<defs>
		<polyline id="SVGID_1_" points="0,176.091 476.765,176.091 476.765,0 0,0 0,176.091 		"/>
	</defs>
	<clipPath id="SVGID_2_">
		<use xlink:href="#SVGID_1_"  overflow="visible"/>
	</clipPath>
	<path clip-path="url(#SVGID_2_)" fill="#FFFFFF" d="M435.128,174.737c-1.357,0-2.726-0.254-4.065-0.757
		c-2.553-0.958-4.917-1.825-7.224-2.653c-3.309-1.182-5.806-3.579-7.248-6.947c-0.055,0.037-0.109,0.073-0.165,0.108
		c-1.696,1.104-3.702,1.689-5.792,1.689c-1.188,0-2.379-0.189-3.536-0.562c-2.112-0.685-4.278-1.371-6.624-2.098
		c-1.697-0.524-3.251-1.414-4.533-2.592c-0.646,0.119-1.301,0.179-1.955,0.179c-0.993,0-1.979-0.138-2.932-0.41
		c-49.813-14.446-101.366-21.77-153.233-21.77c-53.923,0-107.431,7.903-159.037,23.489c-1.011,0.304-2.062,0.459-3.125,0.459
		c-1.649,0-3.25-0.365-4.688-1.063c-2.721,2.867-6.125,5.003-10.134,6.361c-2.639,0.897-5.215,1.794-7.658,2.665
		c-2.616,0.935-5.127,1.409-7.464,1.409c-3.204,0-6.222-0.917-8.736-2.651L9.675,153.05c-0.042-0.023-0.107-0.064-0.173-0.108
		c-3.722-2.354-8.146-7.286-8.148-17.429v-5.694c0-5.397,3.115-9.921,8.131-11.806c2.823-1.06,5.561-2.066,8.137-2.993
		c1.353-0.487,2.749-0.734,4.147-0.734c0.252,0,0.504,0.008,0.755,0.024v-0.981L6.507,100.021c-3.276-2.371-5.154-6.25-5.154-10.648
		V65.814c0.003-12.835,6.721-22.595,18.429-26.778c3.057-1.09,6.106-2.152,9.064-3.156c2.693-0.913,5.345-1.376,7.882-1.376
		c2.032,0,3.961,0.296,5.756,0.882c1.507-3.028,4.215-5.296,7.602-6.318c2.789-0.843,5.622-1.679,8.42-2.482
		c1.097-0.312,2.216-0.469,3.331-0.469c1.27,0,2.504,0.2,3.681,0.596c1.6-1.821,3.699-3.109,6.126-3.75
		c2.788-0.738,5.64-1.472,8.475-2.184c1.006-0.249,2.023-0.374,3.028-0.374c2.196,0,4.271,0.584,6.068,1.701
		c3.31-3.136,7.509-5.267,12.5-6.34c3.122-0.669,6.255-1.316,9.316-1.924c1.81-0.359,3.572-0.541,5.238-0.541
		c2.945,0,5.791,0.605,8.311,1.761c1.839-2.743,4.739-4.595,8.134-5.154c6.674-1.094,13.434-2.093,20.094-2.973
		c1.216-0.159,2.423-0.239,3.588-0.239c5.086,0,9.548,1.5,13.001,4.353c3.817-4.423,9.324-7.036,16.022-7.583
		c6.713-0.543,13.519-0.988,20.227-1.32c0.16-0.007,0.46-0.015,0.621-0.015c1.808,0,3.58,0.4,5.172,1.162
		c1.726-0.994,3.679-1.549,5.698-1.613c2.705-0.087,5.43-0.157,8.098-0.208c2.618,0,5.145,0.798,7.244,2.267
		c2.097-1.545,4.627-2.386,7.234-2.386c2.625,0.008,5.249,0.031,7.801,0.069c1.984,0.032,3.934,0.561,5.687,1.537
		c1.65-0.833,3.485-1.271,5.354-1.271c0.165,0,0.332,0.003,0.498,0.01c2.159,0.07,4.393,0.154,6.624,0.25
		c3.712,0.158,6.955,1.876,9.148,4.787c2.191-2.375,5.299-3.747,8.64-3.747c0.245,0,0.691,0.017,0.921,0.034
		c2.729,0.197,5.391,0.404,7.904,0.616c1.96,0.166,3.829,0.791,5.45,1.817c1.387-0.558,2.892-0.85,4.396-0.85
		c0.315,0,0.931,0.03,1.265,0.063c6.731,0.684,13.512,1.479,20.159,2.366c8.936,1.196,15.671,6.092,18.951,13.626l0.371-0.888
		c0.149-0.418,0.313-0.809,0.5-1.194l0.052-0.127c0.118-0.28,0.263-0.547,0.433-0.796c2.091-3.544,5.81-5.659,9.956-5.659
		c0.744,0,1.505,0.071,2.263,0.209c3.838,0.71,7.733,1.468,11.58,2.252c4.978,1.024,8.679,4.785,9.662,9.813
		c0.256,1.151,0.514,2.323,0.774,3.504c0.066-0.091,0.134-0.182,0.206-0.274c2.38-3.052,6.79-6.688,14.283-6.688
		c2.04,0,4.207,0.289,6.442,0.858c3.063,0.784,6.167,1.605,9.225,2.438c4.854,1.323,9.078,3.782,12.289,7.141
		c1.69-0.935,3.614-1.425,5.631-1.425c1.245,0,2.488,0.19,3.697,0.565c2.492,0.771,5.048,1.579,7.813,2.472
		c3.467,1.125,6.194,3.518,7.69,6.687c1.748-0.964,3.688-1.467,5.697-1.467c1.39,0,2.777,0.243,4.126,0.723
		c2.855,1.014,5.698,2.045,8.446,3.065c3.758,1.39,6.582,4.325,7.746,8.049c1.021,3.28,0.592,6.841-1.174,9.778
		c-4.354,7.963-8.659,15.86-12.8,23.481c5.335,19.557,10.768,39.618,16.15,59.642c1.731,5.045-0.013,8.786-1.21,10.57
		c-1.013,1.505-2.395,2.753-3.998,3.612l-27.037,15.694C439.533,174.013,437.335,174.737,435.128,174.737"/>
	<path clip-path="url(#SVGID_2_)" fill="#FFFFFF" d="M239.716,2.705c2.613,0.008,5.198,0.03,7.78,0.069
		c2.016,0.032,3.982,0.647,5.677,1.743c1.617-0.966,3.486-1.479,5.385-1.479c0.147,0,0.294,0.003,0.441,0.009
		c2.185,0.07,4.403,0.154,6.622,0.25c3.905,0.165,7.23,2.299,9.103,5.775c1.843-2.872,5.04-4.734,8.744-4.734
		c0.201,0,0.616,0.015,0.818,0.03c2.633,0.19,5.265,0.394,7.893,0.615c2.007,0.17,3.863,0.866,5.424,2.01
		c1.397-0.678,2.946-1.037,4.535-1.037c0.285,0,0.854,0.029,1.135,0.057c6.702,0.681,13.467,1.474,20.112,2.36
		c9.777,1.309,16.614,7.245,19.021,16.053l1.74-4.168c0.135-0.379,0.288-0.749,0.472-1.125l0.068-0.164
		c0.087-0.209,0.196-0.405,0.323-0.586c1.845-3.16,5.113-5.035,8.815-5.035c0.665,0,1.346,0.063,2.02,0.187
		c3.813,0.707,7.699,1.461,11.554,2.247c4.434,0.913,7.728,4.264,8.604,8.748c0.496,2.24,0.995,4.508,1.497,6.79l0.632-1.137
		c0.106-0.191,0.232-0.368,0.374-0.529c0.243-0.418,0.521-0.872,0.871-1.321c2.196-2.815,6.271-6.167,13.217-6.167
		c1.927,0,3.981,0.275,6.107,0.817c3.041,0.779,6.138,1.596,9.205,2.432c5.052,1.377,9.273,3.969,12.403,7.582
		c1.677-1.182,3.73-1.817,5.871-1.817c1.089,0,2.201,0.164,3.297,0.504c2.604,0.805,5.202,1.629,7.799,2.467
		c3.663,1.189,6.352,3.947,7.453,7.434c1.854-1.402,4.06-2.148,6.35-2.148c1.214,0,2.451,0.21,3.673,0.644
		c2.8,0.994,5.638,2.023,8.429,3.059c3.363,1.245,5.888,3.863,6.926,7.185c0.91,2.925,0.523,6.089-1.055,8.7
		c-4.346,7.946-8.705,15.941-13.076,23.987c5.455,19.996,10.938,40.244,16.305,60.207c1.564,4.511,0.025,7.833-1.039,9.42
		c-0.895,1.329-2.113,2.428-3.532,3.185l-27.124,15.743c-1.578,1.177-3.502,1.822-5.457,1.822c-1.195,0-2.403-0.226-3.59-0.671
		c-2.411-0.904-4.822-1.791-7.243-2.659c-3.072-1.099-5.367-3.387-6.629-6.619c-0.13-0.333-0.239-0.675-0.332-1.05l-0.041-0.17
		l-1.064,0.759c-0.175,0.133-0.35,0.258-0.532,0.375c-1.499,0.976-3.254,1.476-5.063,1.476c-1.035,0-2.089-0.164-3.121-0.497
		c-2.216-0.719-4.426-1.417-6.64-2.103c-1.753-0.541-3.293-1.498-4.509-2.778c-0.778,0.203-1.577,0.305-2.378,0.305
		c-0.86,0-1.723-0.118-2.561-0.358c-49.937-14.482-101.612-21.822-153.605-21.822c-54.052,0-107.692,7.921-159.428,23.546
		c-0.898,0.271-1.821,0.401-2.734,0.401c-1.777,0-3.517-0.494-4.971-1.411c-2.648,3.063-6.146,5.379-10.286,6.781
		c-2.627,0.895-5.211,1.794-7.677,2.673c-2.469,0.881-4.829,1.33-7.01,1.33h-0.007c-2.938,0-5.699-0.842-7.994-2.434l-27.338-16.564
		c-0.044-0.026-0.088-0.054-0.131-0.083c-3.464-2.184-7.536-6.777-7.538-16.298v-5.693c0-4.818,2.78-8.858,7.254-10.541
		c2.791-1.047,5.521-2.051,8.119-2.985c1.222-0.441,2.468-0.655,3.689-0.655c0.715,0,1.421,0.073,2.108,0.219l0.001-3.163
		L7.335,98.951c-2.946-2.113-4.63-5.591-4.63-9.578V65.814c0.003-12.23,6.393-21.525,17.532-25.504
		c3.081-1.099,6.123-2.158,9.043-3.148c2.577-0.874,5.085-1.305,7.448-1.305c2.329,0,4.517,0.419,6.489,1.245
		c1.168-3.198,3.767-5.684,7.259-6.738c2.816-0.852,5.644-1.685,8.403-2.477c0.986-0.281,1.98-0.417,2.957-0.417
		c1.435,0,2.833,0.295,4.114,0.862c1.449-1.966,3.544-3.402,6.039-4.061c2.813-0.744,5.634-1.47,8.458-2.179
		c0.91-0.225,1.815-0.334,2.699-0.334c2.309,0,4.478,0.743,6.223,2.102c3.205-3.354,7.504-5.669,12.631-6.772
		c3.137-0.672,6.263-1.318,9.294-1.92c1.725-0.342,3.398-0.515,4.975-0.515c3.226,0,6.238,0.757,8.829,2.184
		c1.513-2.913,4.324-5.016,7.835-5.594c6.64-1.088,13.386-2.086,20.051-2.967c1.167-0.152,2.306-0.227,3.411-0.227
		c5.302,0,9.848,1.725,13.161,4.96c3.563-4.769,9.083-7.633,15.973-8.195c6.707-0.543,13.498-0.986,20.185-1.318
		c0.14-0.007,0.41-0.014,0.554-0.014c1.875,0,3.667,0.474,5.23,1.365c1.672-1.121,3.619-1.752,5.682-1.817
		c2.692-0.086,5.389-0.156,8.082-0.208c2.715,0,5.268,0.97,7.239,2.636C234.461,3.721,237.015,2.705,239.716,2.705 M239.72,0h-0.004
		c-2.58,0-5.091,0.74-7.254,2.114c-2.155-1.297-4.646-1.995-7.199-1.995h-0.026l-0.026,0c-2.673,0.052-5.404,0.122-8.117,0.209
		c-2.003,0.063-3.95,0.563-5.712,1.458c-1.602-0.663-3.343-1.008-5.114-1.008c-0.177,0-0.508,0.008-0.68,0.017
		c-6.731,0.334-13.55,0.779-20.277,1.324c-6.578,0.538-12.077,2.977-16.073,7.101c-3.535-2.544-7.919-3.875-12.843-3.875
		c-1.223,0-2.488,0.084-3.76,0.25c-6.678,0.882-13.452,1.884-20.139,2.979c-3.384,0.557-6.326,2.274-8.373,4.826
		c-2.433-0.954-5.105-1.451-7.854-1.451c-1.754,0-3.605,0.19-5.501,0.566c-3.069,0.609-6.209,1.258-9.335,1.929
		c-4.799,1.032-9.042,3.093-12.401,6.006c-1.792-0.918-3.791-1.396-5.886-1.396c-1.114,0-2.241,0.139-3.349,0.414
		c-2.849,0.714-5.706,1.45-8.5,2.189c-2.397,0.633-4.506,1.837-6.194,3.523c-1.057-0.275-2.149-0.415-3.267-0.415
		c-1.239,0-2.483,0.175-3.697,0.52c-2.811,0.807-5.65,1.644-8.446,2.49c-3.367,1.016-6.13,3.149-7.869,6.01
		c-1.617-0.421-3.322-0.633-5.096-0.633c-2.685,0-5.484,0.487-8.317,1.448c-2.964,1.006-6.021,2.07-9.083,3.162
		c-6.006,2.145-10.938,5.836-14.263,10.673C1.753,53.254,0.001,59.264,0,65.814v23.559c0,4.822,2.067,9.086,5.676,11.717
		l14.387,11.954c-0.979,0.127-1.951,0.362-2.902,0.705c-2.58,0.928-5.323,1.938-8.151,2.998C3.452,118.835,0,123.844,0,129.819
		v5.693c0.002,10.744,4.757,16.023,8.762,18.562c0.078,0.052,0.156,0.102,0.235,0.147l27.245,16.509
		c2.734,1.875,6.004,2.866,9.464,2.866c2.499,0,5.163-0.5,7.926-1.487c2.436-0.868,5.006-1.763,7.64-2.659
		c3.896-1.319,7.255-3.345,10.009-6.032c1.377,0.53,2.859,0.806,4.376,0.806c1.196,0,2.378-0.174,3.515-0.516
		c51.481-15.548,104.857-23.432,158.647-23.432c51.739,0,103.166,7.306,152.852,21.716c1.083,0.309,2.194,0.464,3.314,0.464
		c0.515,0,1.029-0.033,1.54-0.098c1.326,1.098,2.875,1.935,4.549,2.452c2.34,0.725,4.5,1.409,6.603,2.091
		c1.298,0.417,2.627,0.628,3.956,0.628c1.896,0,3.729-0.429,5.378-1.25c1.647,3.007,4.164,5.174,7.372,6.321
		c2.301,0.825,4.657,1.69,7.204,2.645c1.492,0.56,3.021,0.844,4.54,0.844c2.468,0,4.926-0.802,6.941-2.26l26.958-15.647
		c1.788-0.963,3.328-2.357,4.458-4.037c1.336-1.99,3.279-6.146,1.384-11.722c-5.33-19.825-10.711-39.695-15.997-59.078
		c4.048-7.449,8.259-15.173,12.525-22.978c1.952-3.261,2.423-7.212,1.292-10.849c-1.292-4.132-4.415-7.381-8.569-8.919
		c-2.753-1.021-5.602-2.055-8.464-3.071c-1.492-0.531-3.033-0.8-4.577-0.8c-1.778,0-3.507,0.353-5.116,1.035
		c-1.735-2.907-4.477-5.094-7.853-6.188c-2.773-0.896-5.335-1.707-7.833-2.479c-1.337-0.414-2.716-0.625-4.097-0.625
		c-1.889,0-3.707,0.387-5.361,1.131c-3.282-3.174-7.458-5.507-12.202-6.8c-3.064-0.835-6.175-1.657-9.245-2.443
		c-2.346-0.599-4.626-0.901-6.778-0.901c-6.594,0-10.971,2.637-13.747,5.399c-0.064-0.295-0.131-0.59-0.196-0.884
		c-1.101-5.556-5.2-9.708-10.707-10.842c-3.86-0.787-7.764-1.546-11.605-2.258c-0.844-0.154-1.688-0.232-2.513-0.232
		c-4.617,0-8.758,2.349-11.1,6.288c-0.115,0.171-0.221,0.349-0.317,0.532c-3.795-6.471-10.322-10.653-18.665-11.77
		c-6.663-0.889-13.458-1.687-20.197-2.371c-0.351-0.035-1.007-0.071-1.408-0.071c-1.446,0-2.894,0.243-4.259,0.709
		c-1.662-0.935-3.527-1.507-5.472-1.672c-2.52-0.212-5.187-0.419-7.927-0.617c-0.273-0.021-0.764-0.038-1.013-0.038
		c-3.196,0-6.201,1.128-8.535,3.124c-2.377-2.53-5.586-4.009-9.197-4.162c-2.232-0.097-4.467-0.181-6.643-0.251
		c-0.178-0.008-0.357-0.011-0.535-0.011c-1.842,0-3.655,0.382-5.324,1.115c-1.78-0.875-3.722-1.348-5.694-1.379
		c-2.561-0.039-5.189-0.062-7.815-0.07H239.72z"/>
	<path clip-path="url(#SVGID_2_)" fill="#FFFFFF" d="M32.254,45.922c7.485-2.535,11.494,0.604,11.492,8.827v5.786
		c0.001,0.877-0.395,1.524-1.276,1.807c-2.693,0.865-5.383,1.748-8.069,2.649c-0.791,0.266-1.271-0.092-1.271-0.969v-3.681
		c0.001-2.275-1.039-3.154-3.184-2.417c-1.459,0.503-2.918,1.01-4.375,1.523c-1.984,0.7-3.172,2.354-3.172,4.629v15.847
		c6.396-0.013,12.821,0.08,19.271,0.278c1.359,0.088,2.075,0.91,2.077,2.571v41.672c0.001,8.247-4.007,13.867-11.492,16.403
		c-2.975,1.01-5.943,2.044-8.906,3.099c-7.375,2.636-11.388-0.19-11.392-8.437v-5.693c0-0.963,0.469-1.583,1.26-1.879
		c2.659-0.999,5.323-1.98,7.995-2.941c0.871-0.315,1.267-0.013,1.265,0.951v3.68c-0.001,2.363,1.187,3.075,3.173,2.377
		c1.431-0.504,2.864-1.003,4.297-1.495c2.066-0.711,3.184-2.227,3.184-4.589V91.867c-6.375-0.122-12.724-0.141-19.045-0.055
		c-1.42,0.011-2.128-0.776-2.128-2.439V65.815c0.002-8.225,4.018-14.159,11.392-16.793C26.312,47.966,29.279,46.933,32.254,45.922"
		/>
	<path clip-path="url(#SVGID_2_)" fill="#FFFFFF" d="M73.055,34.958c0-0.871,0.486-1.528,1.297-1.742
		c2.778-0.736,5.56-1.452,8.345-2.149c0.97-0.243,1.373,0.186,1.373,1.056v58.521c0.001,0.877-0.403,1.505-1.373,1.747
		c-2.786,0.697-5.567,1.413-8.345,2.148c-0.811,0.214-1.297-0.183-1.297-1.061V70.175c-3.45,0.92-6.895,1.871-10.333,2.85V96.33
		c0,0.877-0.483,1.543-1.286,1.773c-2.766,0.795-5.526,1.608-8.284,2.439c-0.966,0.293-1.366-0.113-1.366-0.99V41.032
		c-0.001-0.871,0.399-1.521,1.366-1.813c2.757-0.833,5.519-1.646,8.284-2.439c0.802-0.23,1.287,0.159,1.286,1.03v23.653
		c3.438-0.979,6.882-1.93,10.333-2.851V34.958z"/>
	<path clip-path="url(#SVGID_2_)" fill="#FFFFFF" d="M92.22,41.373c0.004-8.224,4.06-13.59,11.729-15.24
		c3.047-0.653,6.099-1.284,9.153-1.891c7.686-1.522,11.791,2.156,11.791,10.38v36.094c0.003,8.246-4.103,13.327-11.791,14.85
		c-3.054,0.607-6.105,1.238-9.153,1.891c-7.668,1.649-11.727-1.744-11.729-9.99V41.373z M111.304,74.619
		c2.12-0.428,3.271-1.785,3.27-4.154V38.751c-0.001-2.275-1.146-3.279-3.27-2.851c-1.744,0.352-3.487,0.711-5.229,1.079
		c-2.129,0.449-3.268,1.926-3.269,4.2v31.714c-0.001,2.369,1.14,3.253,3.269,2.804C107.817,75.331,109.56,74.972,111.304,74.619"/>
	<path clip-path="url(#SVGID_2_)" fill="#FFFFFF" d="M133.126,21.985c-0.002-0.871,0.49-1.48,1.312-1.615
		c6.574-1.078,13.163-2.052,19.76-2.922c7.752-1.015,11.884,2.932,11.882,11.156v17.169c0.001,8.161-4.132,12.973-11.882,14.074
		c-3.464,0.485-6.926,1-10.384,1.542v17.527c0,0.87-0.409,1.458-1.314,1.594c-2.689,0.377-5.377,0.771-8.062,1.184
		c-0.825,0.135-1.311-0.311-1.312-1.189V21.985z M152.05,48.835c2.229-0.302,3.303-1.757,3.303-3.948v-12.79
		c0.001-2.274-1.072-3.365-3.303-3.063c-2.748,0.4-5.494,0.819-8.236,1.255v19.802C146.557,49.654,149.302,49.236,152.05,48.835"/>
	<path clip-path="url(#SVGID_2_)" fill="#FFFFFF" d="M334.108,43.688c0,3.245-2.223,5.356-5.188,5.45v0.179
		c2.963,0.954,5.188,3.744,5.188,6.989v11.649c0,8.246-4.191,11.952-11.945,10.913c-6.594-0.878-13.2-1.653-19.813-2.324
		c-0.83-0.084-1.328-0.662-1.326-1.539v-58.52c-0.002-0.963,0.499-1.35,1.326-1.265c6.612,0.671,13.219,1.445,19.813,2.323
		c7.756,1.04,11.943,6.092,11.945,14.317V43.688z M323.647,32.287c-0.002-2.281-1.064-3.657-3.296-3.947
		c-3.023-0.395-6.051-0.766-9.079-1.117v13.932c3.028,0.35,6.054,0.722,9.079,1.116c2.143,0.279,3.297-0.788,3.296-2.978V32.287z
		 M323.647,57.773c-0.002-2.274-1.064-3.649-3.296-3.941c-3.023-0.393-6.051-0.766-9.079-1.115v13.752
		c3.028,0.35,6.054,0.723,9.079,1.117c2.143,0.278,3.297-0.696,3.296-3.064V57.773z"/>
	<path clip-path="url(#SVGID_2_)" fill="#FFFFFF" d="M371.43,87.399c-0.739-0.158-1.143-0.686-1.31-1.506
		c-0.871-3.865-1.741-7.727-2.613-11.589c-5.117-1.061-10.249-2.059-15.387-2.993c-0.845,3.527-1.692,7.056-2.537,10.586
		c-0.17,0.755-0.574,1.125-1.316,0.994c-2.68-0.47-5.36-0.922-8.045-1.359c-0.9-0.146-1.319-0.74-1.069-1.663
		c4.55-18.805,9.092-37.56,13.628-56.266c0.162-0.848,0.652-1.107,1.389-0.972c3.8,0.704,7.593,1.443,11.381,2.215
		c0.731,0.149,1.225,0.601,1.385,1.511c4.523,20.467,9.034,40.985,13.541,61.552c0.246,1.02-0.165,1.453-1.141,1.231
		C376.701,88.544,374.066,87.963,371.43,87.399 M359.823,38.772c-1.719,7.61-3.438,15.226-5.16,22.85
		c3.441,0.64,6.881,1.31,10.316,2.006C363.261,55.335,361.542,47.051,359.823,38.772"/>
	<path clip-path="url(#SVGID_2_)" fill="#FFFFFF" d="M417.085,59.691c0.002,0.877-0.481,1.255-1.284,1.024
		c-2.522-0.732-5.05-1.448-7.581-2.148c-0.885-0.246-1.288-0.876-1.288-1.753V49.63c0-2.282-1.13-3.822-3.236-4.389
		c-1.726-0.463-3.45-0.919-5.179-1.368c-2.184-0.566-3.237,0.395-3.239,2.676c0.002,10.601,0.002,21.201,0,31.8
		c0.002,2.362,1.138,3.789,3.239,4.335c1.729,0.449,3.453,0.905,5.179,1.369c2.106,0.567,3.236-0.261,3.236-2.623v-7.447
		c0-0.877,0.4-1.296,1.288-1.05c2.531,0.7,5.059,1.417,7.581,2.148c0.801,0.231,1.284,0.901,1.284,1.779v9.458
		c-0.001,8.246-4.095,11.394-11.605,9.344c-3.02-0.821-6.04-1.618-9.066-2.394c-7.614-1.945-11.774-7.271-11.771-15.516V41.659
		c-0.004-8.224,4.154-11.658,11.771-9.713c3.026,0.775,6.047,1.573,9.066,2.394c7.511,2.049,11.604,7.661,11.605,15.885V59.691z"/>
	<path clip-path="url(#SVGID_2_)" fill="#FFFFFF" d="M453.885,144.517c-0.95-0.341-1.427-0.953-1.821-1.964
		c-4.348-17.722-8.709-35.396-13.081-53.021c-0.982,1.188-1.967,2.377-2.952,3.569v43.542c0,1.142-0.559,1.571-1.601,1.234
		c-2.557-0.827-5.118-1.637-7.686-2.432c-1.037-0.321-1.599-1.106-1.599-2.247V41.775c0-1.134,0.562-1.576,1.599-1.255
		c2.567,0.794,5.129,1.604,7.686,2.433c1.042,0.336,1.603,1.133,1.601,2.267v27.824c4.611-7.915,9.21-15.776,13.794-23.583
		c0.399-0.645,0.957-0.976,1.829-0.667c2.775,0.986,5.548,1.993,8.313,3.017c1.192,0.442,1.742,1.613,1.106,2.517
		c-4.981,9.113-9.982,18.29-14.999,27.532c5.816,21.302,11.611,42.69,17.382,64.166c0.554,1.35,0.086,2.049-1.182,1.572
		C459.481,146.551,456.687,145.523,453.885,144.517"/>
	<path clip-path="url(#SVGID_2_)" fill="#FAB730" d="M174.37,27.722c-0.001-8.223,4.132-13.05,11.913-13.687
		c6.625-0.537,13.257-0.969,19.892-1.297c0.831-0.042,1.325,0.463,1.323,1.333v58.521c0,0.877-0.494,1.428-1.323,1.469
		c-2.71,0.134-5.42,0.286-8.128,0.455c-0.829,0.053-1.324-0.443-1.323-1.321V56.11c-2.458,0.158-4.917,0.331-7.373,0.518
		c-1.327,5.855-2.652,11.714-3.979,17.577c-0.163,0.798-0.578,1.274-1.408,1.345c-2.703,0.229-5.405,0.475-8.105,0.738
		c-0.912,0.088-1.406-0.389-1.158-1.463c1.432-6.421,2.864-12.839,4.297-19.25c-3.057-1.728-4.629-5.161-4.628-10.241V27.722z
		 M196.724,44.812V24.575c-2.763,0.177-5.523,0.373-8.284,0.587c-2.155,0.168-3.315,1.494-3.316,3.769v13.231
		c0.001,2.276,1.159,3.405,3.316,3.237C191.201,45.186,193.962,44.99,196.724,44.812"/>
	<path clip-path="url(#SVGID_2_)" fill="#FAB730" d="M247.358,12.024c0.91,0.014,1.656,0.813,1.656,1.775v46.957
		c-0.002,8.248-4.149,12.52-11.949,12.522c-3.1,0.003-6.199,0.029-9.3,0.078c-7.799,0.13-11.949-4.073-11.947-12.319V14.08
		c0.002-0.963,0.741-1.773,1.656-1.803c2.655-0.084,5.311-0.152,7.966-0.204c0.92-0.018,1.663,0.754,1.663,1.717v44.504
		c0.001,2.369,1.163,3.488,3.317,3.462c1.439-0.017,2.88-0.029,4.319-0.036c2.157-0.01,3.32-1.148,3.318-3.517V13.701
		c0-0.963,0.751-1.748,1.663-1.745C242.267,11.963,244.812,11.986,247.358,12.024"/>
	<path clip-path="url(#SVGID_2_)" fill="#FAB730" d="M291.404,14.203c0.829,0.07,1.328,0.642,1.327,1.511v58.52
		c0.001,0.878-0.5,1.362-1.327,1.292c-2.18-0.183-4.36-0.355-6.541-0.516c-0.742-0.055-1.16-0.434-1.49-1.25
		c-5.192-11.524-10.389-22.986-15.585-34.384v33.197c0.001,0.877-0.412,1.386-1.324,1.344c-2.599-0.116-5.202-0.217-7.801-0.302
		c-0.831-0.027-1.325-0.569-1.325-1.447V13.649c-0.003-0.869,0.496-1.383,1.325-1.356c2.186,0.071,4.373,0.154,6.56,0.248
		c0.74,0.032,1.155,0.4,1.492,1.207c5.194,11.389,10.389,22.841,15.578,34.358V14.9c0-0.87,0.419-1.37,1.329-1.304
		C286.218,13.783,288.812,13.985,291.404,14.203"/>
	<path clip-path="url(#SVGID_2_)" fill="#FAB730" d="M415.773,115.33c0.724,0.208,1.313-0.262,1.312-1.046v-6.607
		c0.002-0.785-0.592-1.601-1.312-1.81C297.287,71.506,171.29,72.174,53.095,107.871c-0.717,0.218-1.309,1.04-1.309,1.826v2.823
		v16.007v4.604c0.001,0.786,0.59,1.249,1.309,1.031c118.194-35.696,244.192-36.365,362.679-2.004
		c0.724,0.209,1.313-0.261,1.312-1.047v-6.604c0.002-0.786-0.592-1.601-1.312-1.811c-112.329-32.574-231.408-33.667-344.19-3.276
		v4.889c0,0.444-0.221,0.911-0.582,1.221c-0.167,0.145-0.352,0.243-0.536,0.294c-0.211,0.057-0.421,0.049-0.604-0.029
		c-4.104-1.739-8.199-3.437-12.287-5.093c-0.32-0.129-0.507-0.457-0.511-0.869c0.002-0.412,0.192-0.854,0.511-1.169
		c4.086-4.059,8.183-8.077,12.287-12.054c0.346-0.333,0.783-0.468,1.139-0.352c0.359,0.115,0.582,0.463,0.582,0.905v4.891
		C184.366,81.663,303.444,82.755,415.773,115.33"/>
	<path clip-path="url(#SVGID_2_)" fill="#010202" d="M323.647,64.522v-6.749c-0.002-2.274-1.064-3.649-3.296-3.94
		c-3.023-0.394-6.051-0.767-9.079-1.117v13.753c3.028,0.351,6.054,0.723,9.079,1.117C322.494,67.865,323.648,66.89,323.647,64.522"
		/>
	<path clip-path="url(#SVGID_2_)" fill="#010202" d="M323.647,64.522h-0.238v-6.749c-0.001-1.102-0.259-1.953-0.758-2.563
		c-0.5-0.609-1.256-1-2.331-1.142c-3.022-0.393-6.048-0.766-9.075-1.116l0.027-0.237h0.238v13.753h-0.238l0.027-0.237
		c3.03,0.351,6.057,0.723,9.082,1.118c0.229,0.029,0.442,0.044,0.643,0.044c0.404,0,0.752-0.059,1.045-0.173
		c0.438-0.172,0.759-0.459,0.987-0.897c0.227-0.438,0.353-1.034,0.353-1.798V64.51L323.647,64.522h-0.238H323.647l0.238,0.012
		l-0.171-0.008l0.171,0.002v0.006l-0.171-0.008l0.171,0.002l-0.074-0.001h0.074v0.001l-0.074-0.001h0.074
		c0,1.084-0.234,1.921-0.729,2.498c-0.246,0.287-0.556,0.502-0.915,0.641c-0.359,0.14-0.767,0.206-1.218,0.206
		c-0.224,0-0.458-0.017-0.704-0.049c-3.023-0.394-6.048-0.766-9.075-1.116l-0.211-0.024V52.449l0.266,0.03
		c3.03,0.351,6.058,0.724,9.082,1.117c1.157,0.15,2.049,0.592,2.638,1.312c0.59,0.72,0.865,1.692,0.866,2.865v6.754v0.006
		L323.647,64.522z"/>
	<path clip-path="url(#SVGID_2_)" fill="#010202" d="M106.076,75.698c1.742-0.367,3.485-0.726,5.228-1.079
		c2.121-0.428,3.272-1.785,3.27-4.154V38.751c0-2.274-1.146-3.28-3.27-2.85c-1.743,0.352-3.486,0.711-5.228,1.079
		c-2.129,0.449-3.268,1.926-3.269,4.2v31.715C102.806,75.262,103.946,76.147,106.076,75.698"/>
	<path clip-path="url(#SVGID_2_)" fill="#010202" d="M106.076,75.698l-0.049-0.233c1.743-0.367,3.486-0.727,5.23-1.079
		c1.021-0.207,1.779-0.627,2.291-1.263c0.511-0.636,0.787-1.506,0.788-2.651v-0.009l0.238,0.003h-0.238V38.751
		c0-0.933-0.202-1.614-0.554-2.048c-0.177-0.218-0.391-0.379-0.652-0.491c-0.26-0.111-0.57-0.17-0.931-0.17
		c-0.257,0-0.54,0.03-0.848,0.092c-1.743,0.352-3.485,0.711-5.226,1.078c-1.022,0.216-1.781,0.669-2.293,1.328
		c-0.512,0.66-0.786,1.54-0.787,2.639v31.714c0,0.958,0.194,1.631,0.531,2.05c0.168,0.21,0.372,0.364,0.622,0.469
		c0.25,0.104,0.547,0.16,0.896,0.16c0.279,0,0.591-0.036,0.933-0.108L106.076,75.698l0.049,0.233
		c-0.368,0.078-0.712,0.118-1.032,0.118c-0.398,0-0.761-0.063-1.08-0.197c-0.48-0.199-0.854-0.565-1.092-1.065
		c-0.239-0.5-0.352-1.13-0.353-1.894V41.179c0-1.176,0.296-2.171,0.887-2.931c0.589-0.76,1.465-1.27,2.571-1.502
		c1.743-0.368,3.486-0.727,5.23-1.079c0.334-0.067,0.647-0.102,0.942-0.102c0.413,0,0.788,0.068,1.117,0.208
		c0.496,0.209,0.881,0.585,1.128,1.091c0.248,0.506,0.367,1.137,0.368,1.886v31.714v0.003v0.003c0.001,1.22-0.298,2.21-0.893,2.95
		c-0.594,0.74-1.47,1.211-2.568,1.432c-1.743,0.353-3.485,0.712-5.226,1.079L106.076,75.698z"/>
	<path clip-path="url(#SVGID_2_)" fill="#010202" d="M155.353,44.887v-12.79c0.001-2.274-1.072-3.364-3.303-3.063
		c-2.747,0.4-5.494,0.819-8.236,1.255V50.09c2.743-0.436,5.489-0.854,8.236-1.255C154.279,48.533,155.353,47.078,155.353,44.887"/>
	<path clip-path="url(#SVGID_2_)" fill="#010202" d="M155.353,44.887h-0.238v-12.79c0-0.982-0.208-1.702-0.591-2.165
		c-0.192-0.232-0.429-0.406-0.722-0.525s-0.646-0.184-1.062-0.184c-0.204,0-0.423,0.015-0.657,0.046l-0.032-0.236l0.034,0.236
		c-2.746,0.399-5.492,0.819-8.233,1.255l-0.037-0.235h0.238V50.09h-0.238l-0.038-0.235c2.745-0.437,5.491-0.854,8.24-1.255l0.002,0
		c1.07-0.146,1.83-0.558,2.334-1.18c0.504-0.622,0.762-1.474,0.762-2.532H155.353h0.238c0,1.133-0.278,2.104-0.869,2.833
		c-0.589,0.729-1.482,1.196-2.64,1.352l-0.032-0.236l0.034,0.236c-2.747,0.401-5.491,0.818-8.233,1.254l-0.275,0.044V30.086
		l0.201-0.032c2.744-0.436,5.491-0.856,8.24-1.255l0.002,0c0.253-0.034,0.493-0.051,0.721-0.051c0.464,0,0.879,0.071,1.242,0.219
		c0.543,0.22,0.96,0.617,1.223,1.15c0.265,0.533,0.387,1.197,0.387,1.981v12.79H155.353z"/>
	<path clip-path="url(#SVGID_2_)" fill="#010202" d="M188.44,45.399c2.761-0.214,5.522-0.41,8.285-0.588V24.575
		c-2.764,0.178-5.524,0.374-8.285,0.588c-2.156,0.167-3.316,1.493-3.316,3.769v13.231C185.125,44.438,186.282,45.567,188.44,45.399"
		/>
	<path clip-path="url(#SVGID_2_)" fill="#010202" d="M188.44,45.399l-0.019-0.237c2.762-0.214,5.524-0.411,8.288-0.588l0.016,0.238
		h-0.238V24.575h0.238l0.015,0.238c-2.762,0.178-5.522,0.374-8.282,0.587c-1.034,0.082-1.793,0.432-2.306,1.014
		c-0.511,0.582-0.79,1.418-0.791,2.518v13.231c0.001,1.029,0.246,1.778,0.684,2.266c0.22,0.245,0.49,0.43,0.819,0.556
		s0.718,0.193,1.169,0.193c0.125,0,0.254-0.005,0.388-0.016L188.44,45.399l0.019,0.238c-0.146,0.011-0.288,0.017-0.426,0.017
		c-0.497,0-0.945-0.074-1.339-0.225c-0.592-0.226-1.056-0.632-1.358-1.188c-0.303-0.556-0.45-1.253-0.451-2.079V28.931
		c0-1.176,0.302-2.141,0.909-2.832c0.607-0.692,1.506-1.088,2.627-1.174c2.761-0.214,5.523-0.41,8.288-0.588l0.254-0.016v20.714
		l-0.223,0.014c-2.761,0.178-5.521,0.374-8.282,0.588L188.44,45.399z"/>
	<path clip-path="url(#SVGID_2_)" fill="#010202" d="M359.823,38.772c-1.719,7.61-3.438,15.226-5.16,22.85
		c3.441,0.64,6.881,1.31,10.314,2.006C363.261,55.335,361.542,47.051,359.823,38.772"/>
	<path clip-path="url(#SVGID_2_)" fill="#010202" d="M359.823,38.772l0.232,0.052c-1.719,7.61-3.438,15.227-5.16,22.851
		l-0.232-0.053l0.043-0.234c3.443,0.64,6.884,1.31,10.318,2.007l-0.047,0.233l-0.233,0.049c-1.717-8.293-3.436-16.578-5.154-24.857
		L359.823,38.772l0.232,0.052L359.823,38.772l0.233-0.048c1.719,8.279,3.438,16.564,5.154,24.857l0.073,0.354l-0.354-0.072
		c-3.432-0.697-6.87-1.366-10.311-2.006l-0.243-0.045l0.055-0.241c1.721-7.624,3.441-15.241,5.16-22.851l0.242-1.073l0.224,1.078
		L359.823,38.772z"/>
	<path clip-path="url(#SVGID_2_)" fill="#010202" d="M323.647,39.292v-7.005c-0.002-2.281-1.064-3.657-3.296-3.947
		c-3.023-0.395-6.051-0.766-9.079-1.117v13.931c3.028,0.351,6.054,0.723,9.079,1.117C322.494,42.549,323.648,41.482,323.647,39.292"
		/>
	<path clip-path="url(#SVGID_2_)" fill="#010202" d="M323.647,39.292h-0.238v-7.005c-0.001-1.105-0.259-1.959-0.758-2.569
		c-0.5-0.609-1.256-1-2.331-1.142c-3.022-0.395-6.048-0.766-9.075-1.116l0.027-0.237h0.238v13.931h-0.238l0.027-0.237
		c3.03,0.351,6.057,0.723,9.082,1.118c0.216,0.028,0.418,0.042,0.609,0.042c0.408,0,0.761-0.063,1.058-0.179
		c0.445-0.177,0.773-0.47,1.004-0.898c0.23-0.428,0.356-0.998,0.356-1.707H323.647h0.238c0,1.017-0.239,1.835-0.738,2.405
		c-0.249,0.284-0.562,0.501-0.924,0.644c-0.363,0.143-0.776,0.212-1.232,0.212c-0.214,0-0.438-0.015-0.671-0.046
		c-3.023-0.394-6.048-0.766-9.075-1.116l-0.211-0.024v-14.41l0.266,0.03c3.029,0.351,6.058,0.723,9.082,1.118
		c1.157,0.149,2.049,0.591,2.638,1.312c0.59,0.721,0.865,1.695,0.866,2.871v7.005H323.647z"/>
	<path clip-path="url(#SVGID_2_)" fill="#010202" d="M469.362,144.119c-5.53-20.575-11.083-41.073-16.654-61.49
		c4.581-8.434,9.148-16.812,13.701-25.136c1.156-1.88,1.444-4.137,0.783-6.261c-0.753-2.411-2.601-4.319-5.072-5.234
		c-2.791-1.035-5.59-2.05-8.391-3.044c-3.514-1.249-7.187,0.037-9.252,3.368c-0.748,1.275-1.495,2.552-2.247,3.831V45.22
		c0-3.799-2.312-7.004-5.894-8.167c-2.583-0.833-5.169-1.654-7.76-2.455c-0.814-0.251-1.631-0.378-2.429-0.378
		c-2.671,0-4.896,1.388-6.139,3.537c-2.735-4.523-7.088-7.811-12.905-9.397c-3.047-0.829-6.097-1.636-9.158-2.419
		c-1.878-0.479-3.681-0.723-5.353-0.723c-5.716,0-9.031,2.713-10.806,4.989c-0.366,0.468-0.654,1.005-0.962,1.528l-0.026-0.068
		l-4.552,8.182c-1.079-4.915-2.158-9.834-3.241-14.733c-0.637-3.258-2.999-5.679-6.218-6.341c-3.826-0.78-7.657-1.525-11.495-2.236
		c-0.521-0.096-1.01-0.137-1.469-0.137c-2.754,0-5.066,1.448-6.308,3.751l-0.014-0.008l-0.104,0.25
		c-0.151,0.306-0.285,0.622-0.4,0.955l-6.691,16.025V31.86c0-11.359-6.476-19.008-17.326-20.46
		c-6.585-0.878-13.316-1.668-20.007-2.348c-0.209-0.021-0.627-0.043-0.837-0.043c-1.854,0-3.56,0.672-4.879,1.857
		c-1.256-1.583-3.117-2.652-5.335-2.839c-2.618-0.221-5.236-0.424-7.857-0.613c-0.148-0.01-0.452-0.021-0.599-0.021
		c-4.203,0-7.373,3.228-7.373,7.508v4.489c-1.224-2.688-2.442-5.365-3.658-8.026c-1.275-3.054-3.808-4.882-6.948-5.015
		c-2.208-0.095-4.413-0.18-6.626-0.25c-2.097-0.095-4.122,0.717-5.552,2.152c-0.065,0.065-0.112,0.145-0.175,0.212
		c-1.418-1.577-3.432-2.6-5.685-2.636c-2.569-0.039-5.145-0.061-7.735-0.068c-3.178,0-5.922,1.919-7.159,4.67
		c-1.259-2.688-3.996-4.552-7.233-4.552h-0.003c-2.681,0.05-5.363,0.12-8.044,0.206c-2.275,0.072-4.271,1.109-5.661,2.702
		c-0.03-0.032-0.051-0.07-0.082-0.102c-1.381-1.384-3.25-2.146-5.266-2.146c-0.104,0-0.301,0.004-0.402,0.01
		c-6.687,0.332-13.444,0.773-20.088,1.312c-7.701,0.628-13.224,4.449-15.86,10.621c-3.032-5.439-8.833-8.18-16.533-7.177
		c-6.627,0.875-13.339,1.869-19.955,2.952c-3.84,0.633-6.515,3.818-6.503,7.731v0.098c-2.866-3.089-6.826-4.377-10.656-4.377
		c-1.38,0-2.853,0.153-4.38,0.456c-3.083,0.612-6.163,1.25-9.248,1.91c-5.891,1.268-10.377,4.249-13.196,8.589
		c-1.447-2.858-4.656-4.501-8.257-3.608c-2.812,0.704-5.62,1.428-8.421,2.169c-2.853,0.752-4.95,2.92-5.654,5.667
		c-1.714-1.956-4.533-2.88-7.393-2.068c-2.792,0.801-5.579,1.622-8.363,2.464c-3.506,1.059-5.772,4.1-5.772,7.746v1.219
		c-3.569-3.451-9.007-4.342-15.325-2.198c-3.007,1.021-6.004,2.065-8.998,3.132c-9.853,3.52-15.503,11.766-15.506,22.63v23.558
		c0,3.143,1.308,5.692,3.483,7.187l-0.003,0.004l17.691,14.697l-0.001,9.741c-0.104-0.121-0.208-0.233-0.313-0.336
		c-1.888-1.894-4.746-2.494-7.503-1.5c-2.698,0.971-5.387,1.96-8.078,2.969c-3.254,1.224-5.276,4.168-5.276,7.685v5.692
		c0.001,7.283,2.669,11.588,6.199,13.77l-0.001,0.001l27.425,16.616c1.906,1.348,4.146,1.94,6.332,1.939
		c1.831,0,3.845-0.388,5.983-1.151c2.57-0.917,5.146-1.811,7.724-2.688c4.878-1.653,8.543-4.633,10.876-8.551
		c1.095,1.823,3.049,3.026,5.34,3.026c0.629,0,1.258-0.093,1.873-0.28c52.022-15.709,105.958-23.675,160.311-23.675
		c52.278,0,104.238,7.38,154.444,21.941c1.774,0.507,3.64,0.194,5.144-0.754c0.886,1.696,2.411,3,4.367,3.604
		c2.227,0.689,4.449,1.393,6.672,2.114c0.741,0.237,1.487,0.359,2.215,0.359c1.266,0,2.414-0.37,3.381-0.997
		c0.13-0.083,0.253-0.174,0.374-0.269l4.765-3.401c0.371,1.509,0.742,3.016,1.112,4.528c0.059,0.23,0.128,0.458,0.215,0.681
		c0.945,2.417,2.568,4.053,4.818,4.857c2.433,0.873,4.857,1.765,7.282,2.674c0.845,0.316,1.691,0.477,2.519,0.477
		c1.436,0,2.777-0.511,3.843-1.38l0.01,0.013l27.247-15.814v-0.001c0.987-0.517,1.844-1.271,2.479-2.215
		C469.473,149.791,470.544,147.422,469.362,144.119 M43.746,60.534c0.001,0.878-0.396,1.525-1.277,1.808
		c-2.693,0.865-5.382,1.748-8.068,2.649c-0.791,0.266-1.271-0.092-1.271-0.969v-3.681c0.001-2.275-1.04-3.154-3.184-2.417
		c-1.46,0.503-2.918,1.01-4.375,1.523c-1.983,0.7-3.172,2.355-3.172,4.629v15.847c6.396-0.012,12.821,0.08,19.271,0.277
		c1.359,0.089,2.076,0.911,2.077,2.572v41.672c0.002,8.247-4.007,13.867-11.492,16.404c-2.975,1.009-5.943,2.043-8.906,3.099
		c-7.375,2.636-11.389-0.19-11.392-8.437v-5.692c0-0.963,0.469-1.583,1.26-1.88c2.66-0.998,5.324-1.979,7.995-2.941
		c0.872-0.314,1.267-0.012,1.265,0.952v3.679c-0.002,2.363,1.186,3.075,3.172,2.376c1.432-0.503,2.865-1.002,4.297-1.495
		c2.066-0.71,3.184-2.227,3.184-4.589V91.867c-6.375-0.122-12.724-0.14-19.044-0.056c-1.421,0.011-2.129-0.776-2.129-2.439V65.815
		c0.002-8.225,4.018-14.158,11.392-16.793c2.963-1.056,5.932-2.089,8.906-3.1c7.485-2.536,11.494,0.604,11.492,8.828V60.534z
		 M339.152,79.871c4.55-18.805,9.092-37.56,13.628-56.266c0.162-0.848,0.652-1.108,1.389-0.972c3.8,0.704,7.593,1.442,11.382,2.215
		c0.73,0.15,1.224,0.601,1.384,1.511c4.522,20.467,9.034,40.985,13.541,61.552c0.246,1.02-0.165,1.453-1.141,1.231
		c-2.634-0.598-5.269-1.179-7.905-1.744c-0.739-0.157-1.144-0.685-1.31-1.505c-0.87-3.865-1.741-7.728-2.613-11.589
		c-5.118-1.061-10.248-2.059-15.387-2.992c-0.845,3.526-1.691,7.055-2.537,10.585c-0.17,0.755-0.574,1.125-1.316,0.995
		c-2.679-0.47-5.36-0.923-8.045-1.359C339.321,81.388,338.902,80.793,339.152,79.871 M301.024,16.484
		c-0.002-0.964,0.499-1.349,1.326-1.265c6.612,0.671,13.219,1.445,19.813,2.324c7.756,1.039,11.944,6.093,11.946,14.317v11.827
		c0,3.246-2.223,5.356-5.188,5.45v0.179c2.962,0.955,5.188,3.744,5.188,6.989v11.649c0,8.247-4.192,11.952-11.946,10.913
		c-6.594-0.879-13.2-1.653-19.813-2.324c-0.829-0.085-1.328-0.662-1.326-1.539V16.484z M257.338,13.649
		c-0.003-0.869,0.496-1.383,1.325-1.356c2.186,0.071,4.373,0.155,6.56,0.249c0.74,0.032,1.155,0.399,1.491,1.207
		c5.196,11.389,10.39,22.842,15.579,34.357V14.9c0-0.87,0.419-1.369,1.329-1.304c2.596,0.186,5.189,0.388,7.782,0.606
		c0.829,0.07,1.328,0.642,1.327,1.512v58.52c0.001,0.878-0.5,1.362-1.327,1.292c-2.18-0.183-4.36-0.355-6.541-0.516
		c-0.742-0.056-1.16-0.435-1.49-1.25c-5.192-11.525-10.389-22.986-15.585-34.383v33.197c0.001,0.877-0.412,1.386-1.324,1.344
		c-2.599-0.116-5.201-0.217-7.801-0.302c-0.831-0.027-1.325-0.569-1.325-1.447V13.649z M215.818,14.08
		c0.002-0.963,0.741-1.773,1.656-1.803c2.656-0.084,5.311-0.152,7.966-0.204c0.92-0.019,1.663,0.754,1.663,1.717v44.503
		c0.001,2.369,1.163,3.488,3.318,3.463c1.439-0.017,2.88-0.029,4.319-0.036c2.156-0.01,3.32-1.148,3.318-3.517V13.701
		c0-0.963,0.75-1.748,1.663-1.745c2.547,0.007,5.092,0.03,7.637,0.068c0.911,0.014,1.657,0.813,1.657,1.775v46.957
		c-0.002,8.247-4.149,12.52-11.949,12.521c-3.1,0.004-6.2,0.03-9.3,0.079c-7.799,0.13-11.949-4.073-11.947-12.319V14.08z
		 M174.37,27.722c-0.001-8.224,4.132-13.05,11.912-13.687c6.625-0.537,13.256-0.969,19.893-1.298
		c0.831-0.042,1.325,0.463,1.323,1.333v58.521c0,0.877-0.495,1.428-1.323,1.469c-2.71,0.135-5.42,0.286-8.128,0.455
		c-0.83,0.052-1.324-0.443-1.322-1.321V56.11c-2.458,0.158-4.917,0.331-7.374,0.518c-1.327,5.855-2.652,11.714-3.979,17.577
		c-0.163,0.798-0.579,1.274-1.408,1.345c-2.703,0.229-5.405,0.474-8.105,0.737c-0.911,0.089-1.406-0.388-1.158-1.461
		c1.433-6.421,2.864-12.839,4.297-19.25c-3.057-1.728-4.629-5.161-4.627-10.241V27.722z M133.126,21.985
		c-0.002-0.871,0.49-1.479,1.312-1.615c6.574-1.077,13.163-2.052,19.76-2.922c7.752-1.016,11.884,2.932,11.882,11.156v17.169
		c0.001,8.162-4.131,12.973-11.882,14.074c-3.464,0.486-6.927,1-10.384,1.542v17.527c0,0.87-0.409,1.458-1.314,1.594
		c-2.689,0.377-5.377,0.771-8.062,1.184c-0.825,0.135-1.311-0.311-1.312-1.189V21.985z M92.22,41.373
		c0.003-8.224,4.06-13.59,11.729-15.24c3.047-0.653,6.099-1.284,9.153-1.892c7.686-1.522,11.791,2.156,11.791,10.381v36.094
		c0.003,8.246-4.104,13.328-11.791,14.85c-3.055,0.607-6.105,1.237-9.153,1.891c-7.668,1.65-11.727-1.743-11.729-9.99V41.373z
		 M51.786,41.031c-0.001-0.87,0.398-1.521,1.366-1.812c2.756-0.833,5.518-1.646,8.284-2.441c0.802-0.229,1.287,0.16,1.286,1.031
		v23.653c3.438-0.979,6.882-1.93,10.333-2.851V34.958c0-0.871,0.486-1.529,1.298-1.742c2.777-0.736,5.559-1.452,8.344-2.149
		c0.971-0.243,1.373,0.186,1.373,1.056v58.52c0.001,0.878-0.403,1.505-1.373,1.748c-2.786,0.697-5.567,1.413-8.344,2.148
		c-0.811,0.214-1.298-0.183-1.298-1.061V70.174c-3.451,0.921-6.895,1.872-10.333,2.851V96.33c0.001,0.877-0.484,1.543-1.286,1.773
		c-2.766,0.795-5.526,1.607-8.284,2.439c-0.966,0.293-1.366-0.113-1.366-0.99V41.031z M417.085,114.284
		c0.002,0.784-0.588,1.254-1.312,1.045c-112.329-32.574-231.408-33.667-344.19-3.277v-4.891c0-0.442-0.223-0.791-0.582-0.906
		c-0.356-0.115-0.792,0.02-1.138,0.353c-4.104,3.976-8.201,7.994-12.287,12.054c-0.319,0.315-0.508,0.757-0.511,1.169
		c0.003,0.412,0.19,0.739,0.511,0.869c4.087,1.655,8.183,3.354,12.287,5.092c0.182,0.079,0.392,0.087,0.603,0.029
		c0.184-0.05,0.368-0.148,0.535-0.293c0.36-0.311,0.582-0.777,0.582-1.221v-4.89c112.782-30.39,231.861-29.297,344.19,3.276
		c0.72,0.211,1.313,1.026,1.312,1.812v6.604c0.002,0.787-0.588,1.257-1.312,1.047c-118.486-34.36-244.485-33.692-362.679,2.005
		c-0.718,0.218-1.307-0.246-1.308-1.031v-23.435c0-0.786,0.592-1.608,1.308-1.826c118.195-35.697,244.193-36.365,362.679-2.005
		c0.72,0.209,1.313,1.025,1.312,1.811V114.284z M417.085,59.691c0.002,0.877-0.481,1.256-1.284,1.024
		c-2.522-0.732-5.05-1.448-7.581-2.148c-0.885-0.246-1.287-0.875-1.287-1.753V49.63c0-2.282-1.131-3.822-3.236-4.388
		c-1.727-0.464-3.451-0.92-5.179-1.369c-2.185-0.566-3.238,0.396-3.239,2.677c0.001,10.599,0.001,21.2,0,31.799
		c0.001,2.362,1.137,3.789,3.239,4.335c1.728,0.449,3.452,0.905,5.179,1.368c2.105,0.567,3.236-0.261,3.236-2.624v-7.446
		c0-0.877,0.399-1.296,1.287-1.05c2.531,0.7,5.059,1.417,7.581,2.148c0.801,0.232,1.284,0.902,1.284,1.779v9.459
		c-0.001,8.246-4.095,11.394-11.605,9.344c-3.02-0.821-6.04-1.618-9.066-2.393c-7.614-1.945-11.772-7.271-11.771-15.516V41.659
		c-0.002-8.224,4.154-11.658,11.771-9.714c3.026,0.776,6.047,1.574,9.066,2.394c7.511,2.049,11.604,7.662,11.605,15.886V59.691z
		 M462.273,147.597c-2.792-1.046-5.587-2.074-8.389-3.08c-0.951-0.341-1.427-0.953-1.821-1.964
		c-4.349-17.722-8.708-35.396-13.081-53.021c-0.982,1.187-1.968,2.377-2.952,3.569v43.542c0,1.142-0.559,1.571-1.601,1.234
		c-2.558-0.827-5.119-1.638-7.683-2.433c-1.039-0.32-1.603-1.106-1.603-2.248V41.775c0-1.134,0.563-1.576,1.603-1.255
		c2.563,0.794,5.125,1.605,7.683,2.433c1.042,0.336,1.604,1.133,1.601,2.267v27.824c4.611-7.915,9.211-15.776,13.793-23.583
		c0.401-0.643,0.958-0.976,1.83-0.666c2.776,0.986,5.548,1.992,8.313,3.017c1.191,0.442,1.742,1.614,1.106,2.517
		c-4.981,9.113-9.982,18.289-14.999,27.531c5.816,21.303,11.611,42.691,17.382,64.166
		C464.01,147.375,463.541,148.073,462.273,147.597"/>
	<path clip-path="url(#SVGID_2_)" fill="#010202" d="M469.362,144.119l-0.229,0.062c-5.531-20.575-11.083-41.072-16.655-61.489
		l-0.025-0.092l0.046-0.084c4.582-8.434,9.149-16.812,13.702-25.136l0.002-0.004l0.004-0.006c0.725-1.179,1.097-2.508,1.097-3.856
		c0-0.737-0.111-1.481-0.338-2.209c-0.73-2.337-2.521-4.189-4.928-5.081c-2.79-1.035-5.588-2.05-8.388-3.043
		c-0.862-0.306-1.732-0.455-2.584-0.455c-2.52,0.001-4.879,1.298-6.386,3.724l-0.202-0.126l0.205,0.121
		c-0.748,1.275-1.495,2.552-2.247,3.831l-0.443,0.755v-5.81c-0.003-3.702-2.243-6.806-5.729-7.94
		c-2.583-0.833-5.167-1.653-7.757-2.454c-0.793-0.245-1.586-0.368-2.358-0.368c-2.587,0.001-4.727,1.337-5.933,3.417l-0.202,0.349
		l-0.208-0.345c-2.704-4.47-6.998-7.717-12.765-9.291c-3.045-0.829-6.094-1.636-9.153-2.418c-1.861-0.475-3.645-0.715-5.294-0.715
		c-2.82,0-5.035,0.668-6.767,1.612c-1.731,0.944-2.979,2.167-3.852,3.285c-0.35,0.446-0.634,0.974-0.943,1.502l-0.246,0.418
		l-0.021-0.054l-4.614,8.294l-0.135-0.614c-1.08-4.915-2.158-9.834-3.241-14.733l-0.001-0.004l-0.001-0.001
		c-0.622-3.169-2.905-5.508-6.031-6.154c-3.824-0.78-7.654-1.525-11.491-2.235c-0.505-0.093-0.98-0.133-1.425-0.133
		c-2.668,0.002-4.894,1.396-6.098,3.626l-0.121,0.223l-0.228-0.142l0.125-0.203l0.22,0.092l-0.106,0.256l-0.004,0.008
		c-0.147,0.296-0.277,0.603-0.39,0.926l-0.002,0.007l-7.152,17.129V31.86c-0.001-5.635-1.604-10.326-4.538-13.791
		c-2.934-3.464-7.204-5.712-12.582-6.434c-6.582-0.877-13.312-1.667-19.998-2.347v0c-0.196-0.02-0.618-0.042-0.813-0.042
		c-1.795,0-3.443,0.65-4.72,1.796l-0.188,0.169l-0.157-0.199c-1.218-1.534-3.016-2.567-5.169-2.75
		c-2.616-0.221-5.234-0.424-7.854-0.613h0.001c-0.14-0.009-0.446-0.021-0.582-0.021c-2.04,0-3.819,0.781-5.093,2.078
		c-1.273,1.297-2.042,3.111-2.042,5.192v5.588l-0.455-1c-1.224-2.688-2.442-5.364-3.658-8.026l-0.002-0.003l-0.002-0.004
		c-0.622-1.491-1.547-2.673-2.693-3.501c-1.146-0.828-2.518-1.302-4.044-1.367c-2.208-0.095-4.412-0.18-6.624-0.25h-0.003
		c-0.106-0.005-0.213-0.007-0.319-0.007c-1.914,0-3.743,0.775-5.053,2.089l-0.001,0c-0.037,0.035-0.083,0.111-0.168,0.206
		l-0.178,0.191l-0.174-0.194c-1.379-1.532-3.33-2.522-5.512-2.557c-2.567-0.039-5.143-0.061-7.732-0.068
		c-3.08,0-5.74,1.86-6.941,4.53L232.562,11l-0.22-0.47c-1.222-2.606-3.874-4.414-7.017-4.415h-0.003V5.876l0.004,0.238
		c-2.68,0.05-5.361,0.12-8.041,0.205c-2.207,0.071-4.139,1.075-5.489,2.621l-0.17,0.195l-0.18-0.186
		c-0.059-0.064-0.08-0.104-0.082-0.102l0.171-0.166l-0.168,0.168c-1.336-1.338-3.141-2.076-5.098-2.076
		c-0.098,0-0.297,0.004-0.389,0.009l-0.016,0.001l0.014-0.001c-6.684,0.333-13.439,0.773-20.081,1.311
		c-3.816,0.312-7.081,1.413-9.715,3.192c-2.635,1.78-4.643,4.239-5.945,7.286l-0.191,0.447l-0.236-0.424
		c-1.29-2.312-3.081-4.123-5.313-5.359c-2.232-1.236-4.907-1.899-7.966-1.899c-0.968,0-1.974,0.066-3.016,0.202
		c-6.625,0.875-13.333,1.868-19.947,2.951c-1.861,0.307-3.434,1.229-4.545,2.545c-1.11,1.317-1.759,3.029-1.759,4.925v0.024v0.002
		v0.098v0.607l-0.413-0.445c-2.812-3.031-6.702-4.3-10.481-4.301c-1.363,0-2.82,0.151-4.333,0.451
		c-3.082,0.612-6.161,1.249-9.244,1.91c-5.84,1.258-10.263,4.202-13.046,8.486l-0.226,0.347l-0.187-0.369
		c-1.142-2.252-3.406-3.72-6.095-3.721c-0.611,0-1.244,0.076-1.892,0.236h0c-2.811,0.704-5.618,1.428-8.418,2.168
		c-2.771,0.732-4.8,2.831-5.484,5.496l-0.112,0.438l-0.297-0.339c-1.247-1.422-3.101-2.281-5.125-2.281
		c-0.661,0-1.341,0.092-2.024,0.286l0.001,0c-2.791,0.801-5.577,1.622-8.36,2.463c-1.707,0.516-3.105,1.51-4.079,2.817
		c-0.974,1.307-1.524,2.927-1.524,4.701v1.781l-0.404-0.391c-2.226-2.15-5.186-3.287-8.665-3.289c-1.987,0-4.142,0.373-6.418,1.145
		c-3.006,1.02-6.002,2.064-8.994,3.13c-4.884,1.746-8.715,4.655-11.33,8.471c-2.615,3.816-4.016,8.544-4.018,13.935v23.558
		c0.002,3.077,1.274,5.542,3.38,6.991l0.208,0.144l-0.017,0.021l17.599,14.621l-0.001,10.496l-0.419-0.488
		c-0.1-0.116-0.2-0.224-0.298-0.32l-0.002-0.002c-1.236-1.239-2.9-1.904-4.681-1.904c-0.843,0-1.712,0.15-2.573,0.459
		c-2.697,0.971-5.385,1.96-8.074,2.968c-1.583,0.596-2.861,1.606-3.746,2.894c-0.884,1.289-1.375,2.854-1.376,4.567v5.692
		c0.001,3.613,0.663,6.472,1.752,8.693c1.09,2.221,2.606,3.806,4.334,4.875l0.26,0.161l-0.22,0.213l-0.166-0.171l0.124-0.204
		l27.432,16.621l0.006,0.004c1.86,1.315,4.049,1.896,6.192,1.896h0.006l-0.006,0.233l-0.086-0.217
		c0.051-0.02,0.09-0.016,0.092-0.017l-0.006,0.233l-0.086-0.217l0.042-0.017h0.046c1.797,0,3.785-0.381,5.903-1.138
		c2.571-0.917,5.148-1.812,7.727-2.689c4.83-1.638,8.443-4.579,10.748-8.447l0.204-0.342l0.206,0.341
		c1.055,1.755,2.93,2.91,5.136,2.911c0.606,0,1.211-0.09,1.803-0.27c52.045-15.715,106.004-23.686,160.38-23.686
		c52.301,0,104.283,7.383,154.511,21.951l-0.001,0c0.548,0.157,1.104,0.232,1.655,0.232c1.167,0,2.312-0.338,3.296-0.958
		l0.219-0.138l0.119,0.229c0.858,1.64,2.329,2.899,4.227,3.486c2.228,0.69,4.451,1.393,6.675,2.115l-0.001,0
		c0.72,0.23,1.442,0.348,2.143,0.348c1.219,0,2.32-0.355,3.251-0.959l0.001,0c0.122-0.078,0.238-0.164,0.357-0.256l0.002-0.002
		l5.057-3.609l0.083,0.341c0.371,1.51,0.742,3.017,1.112,4.529v-0.001c0.056,0.223,0.123,0.441,0.205,0.652
		c0.463,1.183,1.088,2.166,1.867,2.952c0.78,0.786,1.716,1.376,2.81,1.768c2.435,0.874,4.859,1.766,7.285,2.675
		c0.821,0.307,1.64,0.461,2.436,0.461c1.379,0,2.667-0.49,3.691-1.327l0.189-0.154l0.031,0.041l27.067-15.71l0.12,0.206h-0.239
		v-0.001v-0.144l0.128-0.067c0.954-0.499,1.78-1.226,2.393-2.137c0.502-0.75,1.142-2.045,1.142-3.803
		c0-0.83-0.143-1.764-0.512-2.798l-0.004-0.01l-0.002-0.009L469.362,144.119l0.225-0.08c0.388,1.083,0.54,2.074,0.54,2.959
		c0,1.876-0.684,3.265-1.223,4.069c-0.657,0.979-1.545,1.759-2.566,2.293l-0.11-0.211h0.238v0.001v0.137l-27.545,15.988
		l-0.138-0.176l0.188-0.147l0.15,0.185c-1.105,0.903-2.5,1.434-3.993,1.434c-0.858,0-1.733-0.167-2.603-0.492
		c-2.424-0.909-4.848-1.8-7.279-2.673c-1.155-0.413-2.156-1.043-2.986-1.88c-0.831-0.837-1.49-1.88-1.973-3.115
		c-0.092-0.233-0.164-0.471-0.224-0.709l-0.001-0.001c-0.37-1.512-0.741-3.019-1.112-4.528l0.231-0.057l0.139,0.194l-4.765,3.401
		l-0.139-0.194l0.146,0.188c-0.125,0.098-0.254,0.192-0.392,0.281l0.001,0c-1.003,0.651-2.199,1.036-3.511,1.036
		c-0.754,0-1.524-0.125-2.287-0.371h-0.001c-2.222-0.721-4.443-1.423-6.669-2.112c-2.016-0.622-3.594-1.97-4.508-3.721l0.211-0.11
		l0.127,0.202c-1.059,0.668-2.291,1.032-3.55,1.032c-0.595,0-1.195-0.082-1.786-0.25l-0.001,0
		c-50.185-14.555-102.122-21.932-154.378-21.932c-54.329,0-108.243,7.963-160.242,23.665c-0.636,0.194-1.288,0.291-1.941,0.291
		c-2.376,0-4.41-1.252-5.544-3.142l0.204-0.123l0.205,0.122c-2.361,3.968-6.078,6.986-11.004,8.655
		c-2.577,0.877-5.152,1.771-7.72,2.687c-2.159,0.771-4.199,1.166-6.063,1.166v-0.238l0.088,0.221
		c-0.034,0.014-0.066,0.017-0.082,0.017h-0.015l0.002-0.083l-0.002,0.083l0,0l0.002-0.083l-0.002,0.083l0.005-0.224v0.225l-0.005,0
		l0.005-0.224v0.225c-2.228,0-4.517-0.604-6.467-1.983l0.138-0.195l-0.124,0.204l-27.688-16.776l0.222-0.216l0.166,0.171
		l-0.125,0.203c-1.802-1.113-3.385-2.772-4.511-5.07c-1.127-2.298-1.8-5.232-1.801-8.903v-5.692c0-1.804,0.52-3.468,1.459-4.837
		s2.3-2.442,3.971-3.071c2.691-1.009,5.382-1.999,8.081-2.97c0.911-0.328,1.835-0.488,2.734-0.488c1.899,0,3.691,0.713,5.018,2.044
		l-0.169,0.168l0.167-0.17c0.11,0.108,0.219,0.225,0.327,0.351l-0.181,0.155h-0.238l0.001-9.629L8.908,96.6l0.145-0.187l0.188,0.146
		l-0.135,0.196c-2.245-1.542-3.588-4.176-3.586-7.383V65.814c0.001-5.473,1.426-10.301,4.101-14.204
		c2.674-3.903,6.595-6.876,11.563-8.651c2.994-1.067,5.993-2.112,9.001-3.133c2.318-0.786,4.524-1.17,6.571-1.17
		c3.582-0.001,6.679,1.18,8.996,3.422l-0.166,0.171h-0.238v-1.219c0-1.873,0.583-3.596,1.619-4.986
		c1.035-1.39,2.523-2.445,4.323-2.988c2.785-0.842,5.574-1.664,8.366-2.465h0.001c0.725-0.206,1.448-0.304,2.154-0.304
		c2.159,0,4.145,0.917,5.483,2.444l-0.179,0.157l-0.231-0.059c0.724-2.828,2.889-5.065,5.824-5.838
		c2.803-0.742,5.612-1.466,8.425-2.17h0c0.684-0.169,1.356-0.25,2.006-0.25c2.867-0.001,5.304,1.576,6.521,3.982l-0.213,0.107
		l-0.2-0.129c2.855-4.398,7.405-7.416,13.346-8.693c3.085-0.661,6.167-1.299,9.251-1.911c1.541-0.305,3.028-0.46,4.426-0.46
		c3.882,0,7.911,1.307,10.831,4.454l-0.175,0.162h-0.238v-0.098v0.002v-0.028c0-2.005,0.688-3.83,1.871-5.232
		c1.183-1.403,2.861-2.384,4.832-2.708c6.618-1.083,13.332-2.077,19.962-2.953c1.062-0.138,2.088-0.206,3.078-0.206
		c3.128,0,5.887,0.679,8.197,1.959c2.311,1.279,4.169,3.16,5.498,5.544l-0.208,0.116l-0.219-0.093
		c1.334-3.125,3.405-5.663,6.116-7.494c2.711-1.831,6.059-2.955,9.943-3.272c6.647-0.538,13.407-0.979,20.096-1.312l0.016-0.001
		l-0.018,0.001c0.11-0.006,0.305-0.01,0.416-0.011c2.076,0,4.009,0.787,5.435,2.217l0.003,0.003
		c0.058,0.064,0.079,0.102,0.081,0.101l-0.171,0.166l-0.179-0.157c1.43-1.639,3.488-2.709,5.833-2.783
		c2.681-0.085,5.364-0.155,8.046-0.206h0.005h0.003c3.33,0,6.151,1.919,7.448,4.689l-0.215,0.101l-0.217-0.098
		c1.273-2.833,4.1-4.811,7.376-4.811c2.593,0.007,5.169,0.03,7.738,0.069c2.324,0.037,4.4,1.092,5.859,2.714l-0.178,0.16
		l-0.174-0.163c0.039-0.039,0.086-0.123,0.18-0.219v0c1.4-1.404,3.348-2.229,5.391-2.229c0.113,0,0.227,0.002,0.341,0.008
		l-0.011,0.238l0.008-0.238c2.214,0.071,4.42,0.155,6.629,0.25c1.613,0.068,3.079,0.574,4.303,1.457
		c1.224,0.883,2.202,2.141,2.854,3.704l-0.22,0.092l0.216-0.099c1.217,2.662,2.436,5.339,3.659,8.027l-0.217,0.099h-0.238V14.9
		c0-2.199,0.815-4.139,2.179-5.526c1.361-1.388,3.27-2.221,5.433-2.22c0.157,0,0.458,0.012,0.614,0.022l0.001,0
		c2.622,0.189,5.241,0.392,7.861,0.613c2.282,0.192,4.207,1.296,5.501,2.929l-0.187,0.148l-0.159-0.177
		c1.361-1.224,3.127-1.919,5.038-1.918c0.225,0,0.639,0.022,0.86,0.044h0.001c6.692,0.68,13.427,1.471,20.014,2.349
		c5.474,0.732,9.866,3.035,12.883,6.598s4.65,8.375,4.65,14.099v4.324l6.233-14.928l0.22,0.092l-0.226-0.078
		c0.118-0.343,0.257-0.669,0.413-0.983l0.213,0.106l-0.22-0.092l0.212-0.507l0.251,0.155l-0.125,0.203l-0.21-0.113
		c1.279-2.377,3.679-3.878,6.518-3.876c0.473,0,0.978,0.042,1.512,0.141c3.839,0.711,7.672,1.457,11.5,2.237
		c3.311,0.679,5.752,3.183,6.403,6.529l-0.233,0.046l0.232-0.052c1.084,4.9,2.162,9.819,3.241,14.734l-0.232,0.051l-0.208-0.116
		l4.795-8.619l0.213,0.532l-0.222,0.089l-0.205-0.121c0.305-0.518,0.597-1.064,0.979-1.554c0.903-1.158,2.2-2.429,3.999-3.411
		s4.1-1.67,6.995-1.67c1.695,0,3.517,0.247,5.412,0.73c3.062,0.783,6.113,1.591,9.161,2.42c5.869,1.599,10.28,4.928,13.046,9.504
		l-0.203,0.123l-0.207-0.119c1.281-2.217,3.591-3.657,6.346-3.655c0.823,0,1.664,0.131,2.499,0.389
		c2.592,0.802,5.179,1.622,7.763,2.456c3.679,1.192,6.062,4.497,6.059,8.394v4.934h-0.238l-0.205-0.121
		c0.751-1.279,1.498-2.556,2.246-3.831l0.001-0.001l0.002-0.004c1.582-2.554,4.105-3.951,6.791-3.949
		c0.906,0,1.831,0.159,2.744,0.483c2.801,0.994,5.601,2.01,8.394,3.045c2.536,0.938,4.441,2.903,5.217,5.386
		c0.241,0.774,0.359,1.565,0.359,2.351c0,1.437-0.397,2.853-1.167,4.106l-0.203-0.125l0.209,0.115
		c-4.553,8.323-9.119,16.701-13.701,25.135l-0.209-0.114l0.229-0.063c5.572,20.417,11.124,40.916,16.655,61.491L469.362,144.119
		l0.225-0.08L469.362,144.119z M43.746,60.534h0.238v0.005c0,0.473-0.108,0.905-0.351,1.259c-0.241,0.354-0.612,0.619-1.092,0.771
		c-2.692,0.864-5.38,1.748-8.065,2.648c-0.19,0.064-0.372,0.099-0.545,0.099c-0.156,0-0.305-0.028-0.438-0.09
		c-0.202-0.091-0.361-0.258-0.458-0.466c-0.099-0.208-0.143-0.455-0.143-0.738v-3.681c0.001-0.848-0.153-1.47-0.422-1.856
		c-0.135-0.194-0.295-0.333-0.492-0.429c-0.196-0.095-0.433-0.147-0.718-0.147c-0.344,0-0.757,0.077-1.236,0.242
		c-1.459,0.502-2.917,1.01-4.374,1.522c-0.95,0.336-1.698,0.894-2.213,1.636c-0.515,0.742-0.799,1.673-0.8,2.769v15.847h-0.238
		l0-0.238c0.386-0.001,0.772-0.001,1.158-0.001c6.017,0,12.057,0.093,18.12,0.278h0.003l0.005,0c0.362,0.024,0.69,0.097,0.979,0.226
		c0.434,0.193,0.776,0.519,0.995,0.957c0.22,0.438,0.324,0.979,0.325,1.627v41.672v0.007c0,4.16-1.013,7.678-2.983,10.476
		c-1.97,2.798-4.891,4.866-8.67,6.146c-2.974,1.009-5.941,2.042-8.902,3.098c-1.799,0.643-3.41,0.968-4.826,0.968
		c-1.112,0-2.105-0.201-2.968-0.611c-1.296-0.613-2.284-1.695-2.935-3.204c-0.652-1.51-0.979-3.447-0.98-5.815v-5.692
		c0-0.52,0.128-0.968,0.375-1.325c0.247-0.358,0.607-0.617,1.039-0.778c2.661-0.998,5.326-1.979,7.998-2.942
		c0.237-0.085,0.451-0.133,0.651-0.133c0.147,0,0.289,0.028,0.416,0.091c0.191,0.095,0.33,0.27,0.407,0.475
		c0.079,0.208,0.11,0.451,0.111,0.737v0.002v0.003v3.679v0.001v0.004c-0.001,0.865,0.167,1.472,0.443,1.843
		c0.138,0.187,0.301,0.319,0.496,0.409s0.426,0.138,0.696,0.138c0.346,0,0.756-0.079,1.22-0.243
		c1.432-0.504,2.866-1.003,4.299-1.495c0.997-0.344,1.744-0.871,2.249-1.587c0.504-0.716,0.773-1.632,0.773-2.776V91.867h0.238
		l-0.005,0.238c-3.755-0.071-7.501-0.107-11.238-0.107c-2.604,0-5.204,0.017-7.798,0.052l-0.031,0c-0.373,0-0.708-0.052-1.004-0.164
		c-0.445-0.167-0.794-0.479-1.013-0.906c-0.221-0.428-0.321-0.963-0.322-1.607V65.815c0.001-4.15,1.016-7.741,2.972-10.626
		c1.956-2.886,4.85-5.06,8.578-6.391c2.964-1.056,5.934-2.09,8.909-3.101c1.711-0.58,3.25-0.869,4.614-0.87
		c1.167,0,2.208,0.213,3.11,0.641c1.354,0.641,2.384,1.766,3.063,3.322c0.68,1.557,1.02,3.545,1.02,5.952v0.004v0.002v5.784H43.746
		h-0.238V54.75h0.238l-0.238,0.002v-0.009c0-3.151-0.598-5.522-1.725-7.084c-0.564-0.782-1.257-1.366-2.086-1.76
		c-0.829-0.393-1.796-0.594-2.906-0.594c-1.297,0-2.787,0.276-4.461,0.844c-2.973,1.011-5.94,2.043-8.902,3.099
		c-3.646,1.304-6.447,3.414-8.343,6.209c-1.895,2.796-2.889,6.285-2.89,10.359v23.558c0,0.795,0.17,1.344,0.466,1.683
		c0.149,0.171,0.332,0.297,0.561,0.385c0.229,0.087,0.507,0.133,0.835,0.133l0.024,0c2.597-0.034,5.199-0.052,7.805-0.052
		c3.74,0,7.489,0.036,11.248,0.107l0.234,0.004v34.288c0,1.218-0.29,2.241-0.86,3.051c-0.57,0.81-1.415,1.396-2.484,1.763
		c-1.432,0.492-2.865,0.991-4.296,1.495c-0.5,0.176-0.959,0.269-1.378,0.27c-0.326,0-0.628-0.058-0.896-0.181
		c-0.403-0.185-0.718-0.52-0.917-0.971c-0.201-0.453-0.299-1.021-0.299-1.714v-0.006v0.001v-3.679h0.238l-0.238,0.003v-0.009
		c0.001-0.334-0.056-0.56-0.131-0.672c-0.038-0.057-0.076-0.09-0.124-0.115c-0.048-0.024-0.112-0.041-0.201-0.041
		c-0.121,0-0.287,0.032-0.49,0.105c-2.67,0.962-5.333,1.942-7.992,2.94c-0.359,0.136-0.629,0.335-0.814,0.603
		c-0.185,0.268-0.29,0.611-0.291,1.055v5.692c0,3.1,0.577,5.399,1.654,6.902c0.539,0.753,1.2,1.311,1.989,1.686
		s1.709,0.565,2.764,0.565c1.343,0,2.903-0.311,4.666-0.941c2.964-1.056,5.934-2.09,8.91-3.1c3.703-1.256,6.528-3.264,8.434-5.969
		c1.905-2.706,2.896-6.118,2.896-10.202v-0.007V82.773c-0.001-0.798-0.174-1.36-0.475-1.724c-0.151-0.183-0.336-0.323-0.563-0.425
		c-0.227-0.102-0.499-0.165-0.816-0.186l0.016-0.238l-0.007,0.238c-6.058-0.185-12.094-0.277-18.105-0.277
		c-0.386,0-0.771,0-1.157,0.001l-0.239,0V64.077c0-1.178,0.31-2.212,0.885-3.041s1.414-1.449,2.447-1.813
		c1.458-0.513,2.917-1.021,4.377-1.523c0.515-0.177,0.977-0.267,1.391-0.268c0.343,0,0.655,0.063,0.926,0.195
		c0.409,0.198,0.713,0.55,0.903,1.009c0.191,0.459,0.278,1.028,0.279,1.705v3.681c0,0.311,0.069,0.521,0.161,0.64
		c0.047,0.061,0.098,0.101,0.162,0.131c0.064,0.029,0.142,0.046,0.24,0.046c0.108,0,0.241-0.022,0.394-0.074
		c2.687-0.902,5.377-1.786,8.071-2.65c0.4-0.129,0.667-0.329,0.844-0.586c0.176-0.258,0.267-0.587,0.267-0.99v-0.005H43.746z
		 M339.152,79.871l-0.231-0.056c4.549-18.806,9.092-37.561,13.628-56.266l0.231,0.056l-0.234-0.044
		c0.074-0.385,0.216-0.689,0.441-0.899c0.226-0.21,0.523-0.302,0.838-0.301c0.125,0,0.254,0.014,0.387,0.038v0
		c3.802,0.704,7.597,1.442,11.386,2.216c0.401,0.082,0.758,0.253,1.031,0.539c0.273,0.286,0.455,0.675,0.54,1.165l-0.234,0.041
		l0.232-0.051c4.523,20.468,9.035,40.985,13.542,61.553l-0.233,0.051l0.232-0.056c0.05,0.208,0.076,0.397,0.076,0.572
		c0,0.147-0.02,0.285-0.062,0.411c-0.063,0.189-0.186,0.352-0.354,0.454c-0.167,0.103-0.366,0.145-0.584,0.145
		c-0.155,0-0.322-0.021-0.503-0.063c-2.633-0.598-5.267-1.178-7.902-1.743c-0.413-0.086-0.755-0.288-1.002-0.583
		c-0.248-0.295-0.402-0.671-0.491-1.107l0.233-0.047l-0.232,0.052c-0.87-3.865-1.741-7.728-2.613-11.589l0.232-0.053l-0.049,0.233
		c-5.115-1.061-10.244-2.058-15.381-2.991l0.043-0.234l0.231,0.055c-0.845,3.527-1.691,7.055-2.536,10.586l-0.232-0.056l0.232,0.053
		c-0.08,0.354-0.21,0.652-0.425,0.871c-0.214,0.22-0.514,0.338-0.848,0.335c-0.102,0-0.208-0.01-0.317-0.029
		c-2.678-0.47-5.358-0.922-8.042-1.358c-0.398-0.065-0.734-0.214-0.975-0.457c-0.241-0.243-0.368-0.577-0.366-0.947
		c0-0.176,0.026-0.362,0.08-0.557L339.152,79.871l-0.231-0.056L339.152,79.871l0.23,0.063c-0.044,0.16-0.063,0.305-0.063,0.432
		c0.002,0.27,0.081,0.46,0.229,0.613c0.148,0.152,0.383,0.268,0.712,0.321c2.685,0.437,5.367,0.889,8.047,1.359
		c0.086,0.015,0.164,0.022,0.235,0.022c0.234-0.002,0.381-0.067,0.508-0.193c0.127-0.127,0.232-0.339,0.3-0.641l0.001-0.003
		c0.845-3.531,1.691-7.06,2.536-10.586l0.053-0.219l0.222,0.041c5.141,0.934,10.273,1.932,15.394,2.993l0.149,0.031l0.034,0.15
		c0.872,3.861,1.743,7.725,2.613,11.589v0.002l0.001,0.002c0.078,0.383,0.208,0.681,0.389,0.895
		c0.182,0.213,0.412,0.354,0.737,0.424c2.638,0.565,5.273,1.146,7.908,1.744c0.153,0.035,0.286,0.051,0.397,0.051
		c0.104,0,0.188-0.014,0.251-0.036c0.097-0.035,0.151-0.08,0.195-0.152c0.044-0.073,0.076-0.184,0.076-0.345
		c0-0.127-0.02-0.281-0.063-0.46v-0.002l-0.001-0.002c-4.507-20.567-9.019-41.085-13.541-61.552l-0.002-0.005v-0.005
		c-0.075-0.422-0.221-0.713-0.416-0.917c-0.196-0.205-0.451-0.333-0.781-0.402c-3.787-0.772-7.578-1.511-11.377-2.214l0,0
		c-0.11-0.02-0.211-0.03-0.301-0.03c-0.231,0.001-0.388,0.059-0.515,0.174c-0.126,0.117-0.234,0.315-0.296,0.639l-0.001,0.005
		l-0.002,0.006c-4.536,18.706-9.078,37.46-13.628,56.266l-0.001,0.004v0.002L339.152,79.871z M301.024,16.484l-0.238,0.004v-0.009
		c0-0.237,0.027-0.45,0.086-0.638c0.087-0.282,0.251-0.513,0.476-0.66c0.225-0.148,0.496-0.211,0.791-0.211
		c0.077,0,0.155,0.004,0.234,0.012l0.02,0.002l-0.018-0.001c6.614,0.671,13.223,1.446,19.819,2.324
		c3.922,0.524,6.973,2.074,9.032,4.548c2.061,2.474,3.12,5.854,3.12,10.005v11.827c0.001,1.677-0.577,3.083-1.55,4.074
		c-0.972,0.992-2.332,1.566-3.869,1.614l-0.007-0.238h0.238v0.179h-0.238l0.072-0.227c1.529,0.493,2.866,1.458,3.822,2.718
		c0.956,1.26,1.532,2.82,1.531,4.497v11.649c0,3.705-0.837,6.537-2.494,8.451c-0.828,0.956-1.859,1.677-3.075,2.155
		c-1.217,0.479-2.617,0.716-4.19,0.716c-0.776,0-1.595-0.058-2.455-0.173c-6.592-0.879-13.195-1.652-19.806-2.323
		c-0.463-0.046-0.858-0.238-1.13-0.552c-0.271-0.313-0.411-0.737-0.41-1.219v-0.012l0.238,0.007h-0.238v-58.52H301.024l-0.238,0.004
		L301.024,16.484h0.238v58.523v0.004l-0.145-0.004h0.145v0.004l-0.145-0.004h0.145v0.002c0,0.393,0.109,0.693,0.294,0.907
		c0.186,0.213,0.453,0.351,0.818,0.39c6.614,0.671,13.223,1.445,19.819,2.325c0.842,0.113,1.64,0.169,2.393,0.169
		c1.525,0,2.865-0.23,4.016-0.683c1.725-0.68,3.029-1.853,3.917-3.541c0.888-1.687,1.352-3.896,1.351-6.623V56.305
		c0-1.567-0.537-3.025-1.435-4.209c-0.897-1.184-2.155-2.091-3.588-2.552l-0.165-0.053v-0.583l0.23-0.008
		c1.429-0.045,2.663-0.573,3.544-1.472c0.88-0.898,1.413-2.171,1.413-3.74V31.86c-0.001-4.073-1.036-7.332-3.01-9.7
		c-1.974-2.368-4.895-3.865-8.729-4.38c-6.592-0.878-13.195-1.652-19.806-2.323h0.002c-0.067-0.006-0.131-0.01-0.189-0.01
		c-0.152,0-0.281,0.021-0.386,0.061c-0.158,0.06-0.267,0.151-0.353,0.301c-0.084,0.15-0.139,0.37-0.138,0.67v0.001v0.004H301.024z
		 M257.338,13.649l-0.237,0.003l-0.001-0.011c0-0.464,0.133-0.867,0.4-1.153c0.267-0.287,0.657-0.436,1.102-0.434
		c0.022,0,0.044,0,0.067,0l0.002,0c2.187,0.071,4.375,0.154,6.562,0.248c0.406,0.016,0.758,0.133,1.039,0.367
		c0.281,0.233,0.486,0.563,0.662,0.986l-0.22,0.092l0.217-0.099c5.196,11.39,10.39,22.842,15.58,34.358l-0.218,0.098h-0.238V14.9
		c0.001-0.443,0.1-0.832,0.344-1.117c0.121-0.142,0.278-0.252,0.459-0.324s0.386-0.106,0.61-0.106c0.056,0,0.112,0.002,0.17,0.006
		h0.001c2.597,0.186,5.191,0.388,7.786,0.607c0.463,0.038,0.86,0.224,1.133,0.536c0.272,0.311,0.412,0.733,0.411,1.213v58.52
		c0.001,0.453-0.121,0.841-0.373,1.119c-0.251,0.278-0.621,0.42-1.038,0.418c-0.056,0-0.114-0.002-0.175-0.008h0.002
		c-2.18-0.183-4.359-0.355-6.539-0.515c-0.407-0.029-0.757-0.156-1.037-0.396c-0.28-0.24-0.483-0.575-0.657-1.002l0.222-0.09
		l-0.218,0.098c-5.191-11.524-10.388-22.985-15.584-34.383l0.217-0.099h0.238v33.197v0.007l-0.123-0.002h0.123v0.002l-0.123-0.002
		h0.123c0,0.455-0.103,0.852-0.355,1.144c-0.125,0.145-0.287,0.257-0.474,0.33s-0.398,0.107-0.632,0.108
		c-0.035,0-0.074-0.001-0.115-0.003l0.014-0.238l-0.011,0.238c-2.598-0.116-5.199-0.217-7.798-0.302
		c-0.464-0.014-0.867-0.179-1.143-0.482c-0.275-0.302-0.413-0.721-0.412-1.204V13.649H257.338l-0.237,0.003L257.338,13.649h0.238
		v58.521c0.001,0.396,0.11,0.687,0.289,0.882c0.179,0.195,0.439,0.313,0.806,0.327c2.601,0.085,5.204,0.187,7.804,0.302l0.01,0
		l-0.007,0c0.028,0.002,0.058,0.002,0.088,0.002c0.187,0,0.338-0.028,0.459-0.075c0.181-0.072,0.298-0.181,0.388-0.346
		c0.087-0.165,0.138-0.395,0.138-0.684v-0.007l0.116,0.002h-0.116v-0.002l0.116,0.002h-0.116V38.281l0.455,0.998
		c5.197,11.398,10.394,22.859,15.585,34.385l0.002,0.004l0.002,0.004c0.157,0.389,0.327,0.651,0.524,0.818
		c0.197,0.167,0.427,0.257,0.763,0.284c2.181,0.161,4.362,0.333,6.544,0.516h0.001c0.045,0.004,0.089,0.006,0.132,0.006
		c0.317-0.002,0.534-0.097,0.686-0.263c0.151-0.166,0.249-0.427,0.249-0.798v-58.52c0-0.392-0.109-0.689-0.293-0.899
		c-0.185-0.208-0.45-0.343-0.814-0.375c-2.593-0.219-5.186-0.421-7.78-0.606h0.001c-0.049-0.003-0.095-0.005-0.138-0.005
		c-0.177,0-0.32,0.027-0.435,0.072c-0.171,0.07-0.283,0.174-0.369,0.334c-0.084,0.161-0.133,0.383-0.132,0.664v34.313l-0.456-1.011
		c-5.19-11.515-10.384-22.967-15.579-34.356l-0.001-0.003l-0.002-0.004c-0.16-0.384-0.331-0.642-0.526-0.802
		s-0.421-0.243-0.756-0.258c-2.186-0.094-4.372-0.178-6.557-0.249l0.008-0.238l-0.005,0.238l-0.057,0
		c-0.346,0.001-0.587,0.106-0.754,0.283c-0.167,0.178-0.271,0.449-0.271,0.827v0.006v0.002H257.338z M215.818,14.08l-0.238-0.001
		c0.001-0.542,0.21-1.042,0.549-1.411c0.338-0.369,0.811-0.611,1.337-0.628c2.657-0.084,5.313-0.153,7.97-0.204h0.001l0.035,0
		c0.521,0,0.992,0.222,1.328,0.576c0.336,0.354,0.542,0.843,0.542,1.38v44.503c0,0.567,0.069,1.052,0.2,1.457
		c0.197,0.608,0.523,1.036,0.982,1.327c0.459,0.29,1.066,0.441,1.827,0.441c0.023,0,0.044,0,0.065,0h0.003
		c1.44-0.017,2.882-0.028,4.32-0.036c0.518-0.002,0.969-0.072,1.35-0.207c0.572-0.203,0.991-0.541,1.283-1.04
		c0.291-0.499,0.449-1.172,0.449-2.032V13.701c0-0.543,0.211-1.038,0.554-1.397c0.341-0.359,0.818-0.586,1.342-0.586h0.004
		l-0.003,0.221l-0.045-0.216c0.029-0.006,0.047-0.004,0.048-0.005l-0.003,0.221l-0.045-0.216l0.024-0.005h0.025
		c2.548,0.007,5.094,0.03,7.64,0.068c0.525,0.008,1,0.243,1.34,0.607c0.341,0.365,0.551,0.863,0.552,1.406v46.957
		c-0.001,2.082-0.263,3.92-0.783,5.509c-0.779,2.384-2.148,4.209-4.069,5.425c-1.92,1.216-4.378,1.824-7.335,1.825
		c-3.099,0.004-6.197,0.03-9.296,0.079c-0.118,0.002-0.236,0.003-0.353,0.003c-1.915,0-3.614-0.265-5.087-0.797
		c-2.21-0.796-3.911-2.199-5.043-4.173c-1.134-1.975-1.705-4.51-1.705-7.583l0-0.015l0.238,0.008h-0.238V14.08H215.818h0.238v46.961
		v0.004l-0.117-0.004h0.117v0.004l-0.117-0.004h0.117v0.003c0,2.01,0.25,3.77,0.736,5.276c0.731,2.259,1.987,3.947,3.755,5.083
		c1.768,1.135,4.061,1.718,6.868,1.718c0.114,0,0.229-0.001,0.345-0.003c3.102-0.048,6.203-0.075,9.304-0.079
		c1.929,0,3.624-0.265,5.078-0.783c2.182-0.78,3.826-2.123,4.94-4.034c1.113-1.912,1.692-4.402,1.693-7.465V13.799
		c0-0.419-0.163-0.802-0.423-1.08c-0.261-0.279-0.614-0.45-0.999-0.457c-2.545-0.038-5.089-0.061-7.634-0.068l0-0.238l0.048,0.233
		l-0.046,0.005h-0.009l0.002-0.151v0.151h-0.002l0.002-0.151v0.151c-0.386,0-0.737,0.165-0.998,0.438
		c-0.259,0.272-0.422,0.65-0.422,1.068v44.503c0,0.612-0.075,1.152-0.227,1.622c-0.227,0.704-0.637,1.249-1.206,1.605
		c-0.569,0.356-1.284,0.524-2.123,0.529c-1.438,0.006-2.878,0.018-4.317,0.035l-0.002-0.238l0.006,0.238
		c-0.027,0-0.053,0.001-0.077,0.001c-0.548,0-1.042-0.073-1.476-0.225c-0.652-0.228-1.168-0.644-1.506-1.232
		c-0.338-0.588-0.503-1.337-0.503-2.244V13.791c0-0.415-0.158-0.785-0.411-1.052c-0.253-0.266-0.598-0.427-0.982-0.428l-0.029,0
		h0.002c-2.654,0.051-5.308,0.119-7.963,0.204c-0.388,0.013-0.741,0.19-1.001,0.474c-0.26,0.284-0.422,0.67-0.423,1.091v0H215.818z
		 M174.37,27.722h-0.238c0-4.15,1.044-7.476,3.097-9.845c2.052-2.37,5.101-3.759,9.034-4.079c6.628-0.537,13.261-0.97,19.9-1.298
		c0.036-0.002,0.071-0.003,0.106-0.003c0.436-0.001,0.819,0.146,1.08,0.431c0.261,0.285,0.388,0.683,0.388,1.144v58.521
		c0.001,0.482-0.138,0.903-0.412,1.208c-0.273,0.305-0.674,0.478-1.138,0.5c-2.709,0.134-5.418,0.286-8.125,0.454
		c-0.043,0.003-0.087,0.004-0.132,0.004c-0.428,0.002-0.806-0.143-1.062-0.425c-0.257-0.281-0.381-0.675-0.381-1.133l0-0.017
		l0.238,0.011h-0.238V56.11h0.238l0.015,0.238c-2.458,0.158-4.916,0.331-7.371,0.518l-0.018-0.238l0.232,0.053
		c-1.326,5.855-2.652,11.714-3.978,17.577l-0.233-0.053l0.234,0.048c-0.087,0.428-0.248,0.794-0.52,1.066
		c-0.271,0.272-0.647,0.431-1.103,0.468c-2.702,0.229-5.403,0.474-8.102,0.737c-0.079,0.008-0.155,0.012-0.23,0.012
		c-0.354,0-0.672-0.089-0.906-0.303c-0.116-0.106-0.205-0.24-0.263-0.393c-0.058-0.153-0.085-0.324-0.085-0.509
		c0-0.172,0.024-0.358,0.07-0.559l0,0.001c1.432-6.421,2.864-12.839,4.297-19.25l0.232,0.052l-0.117,0.207
		c-1.572-0.887-2.767-2.221-3.559-3.97c-0.793-1.749-1.189-3.909-1.189-6.471V45.33l0.238,0.003h-0.238V27.722H174.37h0.238v17.612
		v0.004v0.003c0,2.514,0.39,4.607,1.146,6.274c0.758,1.667,1.877,2.913,3.36,3.752l0.154,0.087l-0.039,0.172
		c-1.434,6.412-2.865,12.829-4.297,19.25l0,0.002c-0.04,0.172-0.058,0.323-0.058,0.452c0,0.139,0.021,0.251,0.055,0.34
		c0.052,0.133,0.127,0.219,0.241,0.284c0.114,0.064,0.275,0.104,0.482,0.104c0.058,0,0.119-0.003,0.184-0.009
		c2.701-0.263,5.405-0.509,8.108-0.737c0.375-0.033,0.622-0.148,0.806-0.331c0.184-0.183,0.313-0.454,0.389-0.824l0.001-0.003
		v-0.002c1.326-5.863,2.652-11.722,3.979-17.577l0.039-0.172l0.175-0.013c2.458-0.188,4.917-0.36,7.377-0.518l0.253-0.016V73.2
		l0,0.005l-0.125-0.006h0.125l0,0.006l-0.125-0.006h0.125c0,0.375,0.1,0.641,0.256,0.812c0.157,0.169,0.381,0.269,0.71,0.27
		c0.032,0,0.066-0.001,0.103-0.003c2.71-0.168,5.42-0.32,8.131-0.455c0.366-0.02,0.626-0.144,0.808-0.343
		c0.18-0.2,0.289-0.494,0.29-0.889V14.071c0-0.377-0.102-0.646-0.262-0.821c-0.161-0.173-0.393-0.275-0.729-0.276
		c-0.027,0-0.055,0-0.083,0.001c-6.633,0.329-13.262,0.761-19.884,1.297c-3.846,0.316-6.754,1.658-8.713,3.917
		c-1.958,2.259-2.98,5.458-2.98,9.533H174.37z M133.126,21.985l-0.238,0.002v-0.007c0-0.479,0.137-0.905,0.402-1.23
		c0.264-0.326,0.65-0.541,1.109-0.615c6.577-1.078,13.168-2.053,19.768-2.924c0.808-0.106,1.579-0.158,2.312-0.158
		c1.594,0,3.01,0.25,4.238,0.747c1.843,0.745,3.255,2.054,4.192,3.871c0.938,1.817,1.409,4.136,1.409,6.927v0l0,0.004v17.169
		c0,4.12-1.045,7.426-3.092,9.839c-2.046,2.414-5.08,3.916-8.995,4.471c-3.464,0.486-6.925,1-10.38,1.542l-0.037-0.236h0.238v17.527
		c0,0.471-0.111,0.894-0.369,1.22c-0.257,0.327-0.652,0.537-1.148,0.609l-0.002,0c-2.688,0.377-5.375,0.771-8.059,1.184
		l-0.036-0.236l0.039,0.235c-0.109,0.018-0.214,0.027-0.316,0.027c-0.19,0-0.369-0.032-0.529-0.099
		c-0.242-0.1-0.437-0.282-0.56-0.517c-0.124-0.235-0.182-0.517-0.183-0.835V21.985v0.002L133.126,21.985h0.238v58.52
		c0,0.35,0.086,0.593,0.214,0.742c0.065,0.075,0.141,0.131,0.235,0.17c0.094,0.04,0.208,0.062,0.346,0.062
		c0.073,0,0.153-0.006,0.239-0.021l0.003,0c2.686-0.413,5.375-0.807,8.065-1.185l-0.002,0c0.41-0.063,0.671-0.215,0.845-0.434
		c0.173-0.219,0.267-0.526,0.267-0.925V61.186l0.201-0.032c3.458-0.543,6.922-1.057,10.388-1.542c3.834-0.546,6.741-2,8.699-4.307
		c1.957-2.308,2.978-5.488,2.979-9.531V28.604h0.238l-0.238,0.005v-0.01c0-3.653-0.825-6.42-2.391-8.265
		c-0.783-0.923-1.753-1.621-2.914-2.092c-1.161-0.471-2.514-0.712-4.059-0.712c-0.71,0-1.46,0.051-2.25,0.154
		c-6.594,0.871-13.18,1.845-19.752,2.922c-0.361,0.061-0.63,0.217-0.816,0.446c-0.186,0.229-0.294,0.54-0.295,0.93v0.002v0.002
		H133.126z M92.22,41.373h-0.238c0.001-4.15,1.027-7.604,3.039-10.23c2.011-2.626,5.001-4.41,8.878-5.243
		c3.049-0.653,6.101-1.284,9.157-1.892c1.148-0.228,2.221-0.341,3.216-0.341c1.436,0,2.712,0.236,3.819,0.708
		c1.662,0.707,2.933,1.949,3.774,3.671c0.843,1.723,1.265,3.922,1.265,6.576v36.094v0.009c0.001,4.159-1.038,7.548-3.065,10.089
		c-2.027,2.542-5.034,4.218-8.917,4.986c-3.054,0.607-6.103,1.237-9.149,1.891c-1.272,0.273-2.45,0.411-3.532,0.411
		c-1.378,0-2.602-0.223-3.664-0.674c-1.593-0.675-2.811-1.868-3.615-3.538c-0.805-1.67-1.207-3.813-1.208-6.422V41.373H92.22h0.238
		v36.094c0.001,3.416,0.707,5.96,2.044,7.635c0.669,0.838,1.496,1.465,2.488,1.887s2.15,0.636,3.478,0.636
		c1.042,0,2.187-0.133,3.431-0.401c3.049-0.654,6.101-1.284,9.157-1.892c3.802-0.754,6.69-2.377,8.637-4.816
		c1.946-2.439,2.961-5.709,2.961-9.792v-0.009V34.622c0-3.473-0.741-6.096-2.143-7.837c-0.702-0.872-1.569-1.528-2.607-1.971
		c-1.038-0.442-2.249-0.67-3.632-0.67c-0.959,0-2.001,0.109-3.124,0.332c-3.053,0.607-6.103,1.238-9.149,1.891
		c-3.792,0.817-6.664,2.542-8.6,5.067c-1.935,2.526-2.939,5.867-2.941,9.94H92.22z M51.786,41.031h-0.238
		c0-0.471,0.109-0.906,0.366-1.263c0.255-0.357,0.65-0.621,1.17-0.777c2.758-0.833,5.52-1.646,8.287-2.442h0
		c0.169-0.048,0.332-0.073,0.485-0.073c0.165,0,0.322,0.029,0.463,0.092c0.213,0.093,0.382,0.264,0.487,0.479
		c0.106,0.215,0.154,0.471,0.154,0.762v23.653h-0.238l-0.065-0.229c3.439-0.98,6.885-1.931,10.337-2.852l0.061,0.23h-0.238V34.958
		c0-0.479,0.135-0.915,0.392-1.26c0.256-0.345,0.631-0.594,1.083-0.713c2.778-0.736,5.561-1.453,8.347-2.149
		c0.196-0.049,0.377-0.074,0.544-0.074c0.182,0,0.349,0.031,0.498,0.097c0.224,0.098,0.393,0.281,0.49,0.5
		c0.099,0.221,0.138,0.477,0.138,0.764v58.52c0,0.476-0.11,0.909-0.371,1.256c-0.26,0.348-0.661,0.593-1.183,0.723
		c-2.784,0.697-5.564,1.412-8.341,2.147c-0.161,0.042-0.316,0.065-0.463,0.065c-0.169,0-0.33-0.03-0.475-0.093
		c-0.218-0.094-0.392-0.268-0.5-0.486c-0.109-0.219-0.159-0.48-0.159-0.777V70.174h0.238l0.062,0.23
		c-3.449,0.921-6.892,1.871-10.329,2.85l-0.065-0.229h0.238V96.33c0,0.482-0.134,0.921-0.388,1.27
		c-0.253,0.35-0.624,0.605-1.07,0.732c-2.765,0.794-5.524,1.607-8.281,2.439c-0.226,0.068-0.431,0.104-0.62,0.104
		c-0.17,0-0.328-0.03-0.468-0.095c-0.212-0.097-0.369-0.276-0.458-0.489c-0.091-0.213-0.126-0.46-0.127-0.739V41.031H51.786h0.238
		v58.521c-0.001,0.317,0.06,0.54,0.149,0.662c0.045,0.062,0.094,0.103,0.16,0.134c0.066,0.031,0.152,0.051,0.267,0.051
		c0.127,0,0.289-0.025,0.482-0.084c2.759-0.833,5.521-1.646,8.288-2.441c0.354-0.102,0.626-0.294,0.816-0.554
		c0.189-0.261,0.296-0.594,0.297-0.99V72.846l0.173-0.049c3.44-0.98,6.885-1.931,10.337-2.852l0.299-0.08v23.614
		c0,0.326,0.076,0.549,0.182,0.68c0.054,0.066,0.115,0.113,0.191,0.146s0.169,0.053,0.283,0.053c0.099,0,0.213-0.015,0.342-0.049
		c2.778-0.736,5.561-1.452,8.347-2.149c0.447-0.113,0.733-0.301,0.917-0.546c0.184-0.246,0.275-0.565,0.275-0.97v-58.52
		c0.001-0.325-0.064-0.555-0.163-0.684c-0.05-0.066-0.106-0.111-0.182-0.146c-0.076-0.034-0.175-0.055-0.304-0.055
		c-0.119,0-0.262,0.018-0.428,0.06c-2.784,0.696-5.564,1.412-8.34,2.147c-0.359,0.096-0.633,0.282-0.823,0.537
		c-0.189,0.255-0.297,0.583-0.298,0.975v23.837l-0.177,0.047c-3.45,0.92-6.893,1.871-10.329,2.85l-0.304,0.087V37.81
		c0-0.319-0.073-0.538-0.176-0.664c-0.051-0.064-0.11-0.109-0.182-0.142c-0.073-0.032-0.161-0.051-0.27-0.051
		c-0.102,0-0.22,0.017-0.354,0.055h0c-2.765,0.795-5.525,1.607-8.281,2.44c-0.446,0.135-0.735,0.34-0.921,0.599
		c-0.185,0.259-0.275,0.584-0.276,0.985H51.786z M417.085,114.284h0.238c0.001,0.379-0.12,0.715-0.34,0.956
		c-0.217,0.241-0.532,0.379-0.874,0.378c-0.131,0-0.266-0.02-0.402-0.059c-58.482-16.959-118.796-25.268-179.098-25.268
		c-55.477,0-110.943,7.436-164.964,21.992l-0.3,0.081v-5.202c0-0.182-0.045-0.333-0.119-0.447s-0.171-0.191-0.298-0.232
		c-0.06-0.019-0.123-0.029-0.191-0.029c-0.218-0.001-0.483,0.107-0.709,0.326l0,0c-4.104,3.976-8.199,7.993-12.285,12.051
		c-0.275,0.271-0.44,0.662-0.44,1.002l-0.238-0.001l0.238-0.002c0.001,0.171,0.041,0.314,0.104,0.422
		c0.064,0.108,0.148,0.183,0.258,0.228c4.088,1.656,8.185,3.354,12.291,5.093l0.022,0.009l-0.021-0.009
		c0.073,0.031,0.152,0.047,0.239,0.047c0.066,0,0.135-0.009,0.207-0.029l0,0c0.147-0.04,0.3-0.121,0.442-0.243
		c0.31-0.265,0.501-0.676,0.5-1.041v-5.072l0.176-0.048c54.649-14.726,110.776-22.009,166.898-22.01
		c59.743,0,119.479,8.485,177.421,25.287l0.001,0c0.422,0.125,0.786,0.415,1.051,0.778c0.264,0.365,0.431,0.808,0.432,1.262v6.604
		c0.001,0.38-0.12,0.716-0.339,0.957c-0.218,0.242-0.532,0.38-0.874,0.379c-0.131,0-0.267-0.02-0.403-0.06
		c-58.398-16.935-118.622-25.268-178.837-25.268c-61.911,0-123.811,9.183-183.707,27.272c-0.14,0.042-0.28,0.064-0.416,0.064
		c-0.338,0.001-0.649-0.137-0.864-0.376c-0.216-0.238-0.335-0.571-0.335-0.947v-23.435c0.001-0.453,0.167-0.897,0.43-1.265
		c0.264-0.366,0.626-0.66,1.047-0.789C113.377,89.416,175.762,80.35,238.143,80.35c59.835,0,119.667,8.459,177.697,25.288
		c0.423,0.124,0.787,0.413,1.052,0.777c0.264,0.364,0.431,0.808,0.432,1.262v6.607H417.085h-0.238v-6.607
		c0.001-0.334-0.128-0.69-0.341-0.982c-0.211-0.292-0.503-0.514-0.799-0.6C357.72,89.28,297.933,80.827,238.143,80.827
		c-62.335,0-124.673,9.059-184.979,27.272c-0.295,0.089-0.586,0.315-0.798,0.611c-0.212,0.295-0.342,0.654-0.341,0.987v23.435
		c0,0.278,0.086,0.488,0.212,0.628c0.127,0.14,0.296,0.217,0.51,0.219c0.085,0,0.179-0.014,0.278-0.044
		c59.94-18.103,121.887-27.292,183.844-27.292c60.258,0,120.528,8.339,178.97,25.287c0.097,0.028,0.187,0.04,0.271,0.04
		c0.219-0.001,0.391-0.08,0.521-0.222c0.129-0.142,0.216-0.355,0.216-0.637v-6.604c0.001-0.333-0.128-0.69-0.341-0.982
		c-0.212-0.292-0.503-0.515-0.8-0.601h0.001c-57.898-16.789-117.59-25.268-177.288-25.268c-56.08,0-112.166,7.278-166.774,21.993
		l-0.062-0.23h0.238v4.89c-0.002,0.523-0.253,1.044-0.665,1.401c-0.192,0.167-0.407,0.282-0.628,0.343h0
		c-0.11,0.03-0.223,0.046-0.333,0.046c-0.146,0-0.292-0.028-0.427-0.086l0.001,0c-4.103-1.738-8.197-3.436-12.283-5.091
		c-0.21-0.084-0.38-0.238-0.491-0.429c-0.111-0.191-0.167-0.417-0.169-0.659v-0.003c0.004-0.484,0.218-0.976,0.582-1.338
		c4.086-4.06,8.184-8.079,12.289-12.056l0,0c0.301-0.289,0.67-0.458,1.04-0.46c0.114,0,0.228,0.017,0.337,0.052
		c0.233,0.074,0.426,0.229,0.553,0.428c0.128,0.2,0.194,0.443,0.194,0.704v4.891h-0.238l-0.062-0.23
		c54.062-14.567,109.569-22.008,165.088-22.008c60.346,0,120.703,8.314,179.23,25.287c0.096,0.028,0.186,0.04,0.27,0.04
		c0.219-0.001,0.392-0.081,0.521-0.222c0.129-0.142,0.216-0.354,0.216-0.635H417.085z M417.085,59.691h0.238v0.005
		c0,0.386-0.085,0.713-0.276,0.956c-0.096,0.12-0.219,0.216-0.359,0.277c-0.14,0.062-0.295,0.091-0.458,0.091
		c-0.157,0-0.322-0.027-0.495-0.077c-2.521-0.731-5.049-1.447-7.578-2.147c-0.483-0.133-0.86-0.383-1.106-0.731
		c-0.246-0.347-0.356-0.777-0.355-1.251V49.63c-0.001-1.103-0.272-2.003-0.782-2.696c-0.511-0.692-1.267-1.189-2.278-1.462
		c-1.725-0.463-3.45-0.919-5.177-1.368c-0.395-0.103-0.745-0.151-1.051-0.151c-0.331,0-0.607,0.057-0.838,0.161
		c-0.344,0.158-0.596,0.42-0.776,0.822c-0.179,0.401-0.275,0.942-0.275,1.615c0.001,5.299,0.001,10.6,0.001,15.9
		s0,10.601-0.001,15.9c0.001,1.144,0.274,2.033,0.783,2.704c0.51,0.67,1.264,1.136,2.277,1.4c1.729,0.449,3.454,0.906,5.181,1.369
		c0.408,0.11,0.772,0.164,1.09,0.164c0.314,0,0.581-0.052,0.805-0.151c0.334-0.149,0.582-0.398,0.763-0.791
		c0.18-0.392,0.279-0.93,0.279-1.615v-7.446c0-0.383,0.066-0.711,0.246-0.965c0.09-0.126,0.21-0.229,0.352-0.295
		c0.142-0.067,0.302-0.098,0.473-0.098c0.161,0,0.333,0.027,0.519,0.078c2.532,0.701,5.061,1.417,7.584,2.149
		c0.447,0.129,0.817,0.387,1.069,0.737c0.253,0.35,0.388,0.789,0.387,1.271v9.459c-0.001,3.338-0.663,5.879-1.983,7.602
		c-0.66,0.861-1.485,1.512-2.46,1.943c-0.976,0.432-2.098,0.645-3.354,0.645c-1.238,0-2.609-0.206-4.109-0.616
		c-3.017-0.82-6.037-1.617-9.062-2.392c-3.847-0.981-6.843-2.826-8.871-5.479c-2.028-2.652-3.08-6.101-3.079-10.261v-0.012
		l0.238,0.006h-0.238V41.659h0.238l-0.238,0.004v-0.009c0-3.39,0.698-6.004,2.085-7.785c0.693-0.89,1.56-1.566,2.582-2.017
		c1.023-0.451,2.2-0.675,3.521-0.675c1.18,0,2.475,0.179,3.881,0.538c3.026,0.776,6.049,1.575,9.069,2.395
		c3.798,1.036,6.752,2.981,8.749,5.717c1.997,2.735,3.032,6.249,3.032,10.399v9.466H417.085h-0.238v-9.466
		c-0.001-4.074-1.014-7.479-2.941-10.118s-4.775-4.524-8.488-5.538c-3.018-0.819-6.038-1.617-9.063-2.393
		c-1.375-0.351-2.631-0.523-3.763-0.523c-1.267,0-2.376,0.215-3.328,0.635c-1.428,0.63-2.513,1.716-3.255,3.276
		c-0.74,1.559-1.129,3.595-1.128,6.09v0.001v0.004v36.097v0.004l-0.014,0h0.014v0l-0.014,0h0.014c0,4.082,1.027,7.416,2.981,9.972
		s4.843,4.345,8.61,5.308c3.026,0.775,6.049,1.573,9.069,2.394c1.468,0.401,2.798,0.599,3.983,0.599
		c1.204,0,2.258-0.204,3.161-0.604c1.354-0.602,2.383-1.641,3.088-3.153c0.703-1.511,1.072-3.498,1.072-5.956V76.86
		c0-0.395-0.107-0.73-0.297-0.992s-0.461-0.456-0.815-0.559c-2.521-0.731-5.049-1.447-7.578-2.147
		c-0.153-0.042-0.284-0.061-0.392-0.061c-0.114,0-0.201,0.02-0.269,0.052c-0.101,0.049-0.173,0.123-0.232,0.257
		c-0.059,0.134-0.094,0.327-0.094,0.572v7.446c0,0.973-0.183,1.723-0.579,2.25c-0.198,0.262-0.451,0.462-0.746,0.593
		s-0.63,0.191-0.997,0.191c-0.37,0-0.774-0.062-1.214-0.18c-1.725-0.463-3.45-0.919-5.177-1.368
		c-1.089-0.282-1.952-0.803-2.537-1.573s-0.88-1.774-0.88-2.992c0.001-5.3,0.001-10.6,0.001-15.9c0-5.3,0-10.6-0.001-15.9
		c0.001-0.955,0.177-1.714,0.574-2.254c0.198-0.269,0.454-0.479,0.757-0.616c0.303-0.138,0.65-0.204,1.035-0.204
		c0.355,0,0.745,0.057,1.171,0.167c1.729,0.449,3.454,0.906,5.181,1.37c1.095,0.293,1.957,0.85,2.538,1.639s0.875,1.8,0.874,2.979
		v7.184c0.001,0.403,0.093,0.727,0.269,0.976c0.177,0.248,0.443,0.435,0.845,0.548c2.532,0.701,5.061,1.417,7.584,2.149
		c0.138,0.04,0.259,0.058,0.362,0.058c0.107,0,0.194-0.019,0.266-0.05c0.105-0.048,0.185-0.123,0.248-0.25s0.104-0.31,0.104-0.548
		v-0.005H417.085z M462.273,147.597l-0.083,0.223c-2.791-1.045-5.586-2.073-8.387-3.079c-0.505-0.181-0.902-0.444-1.216-0.797
		c-0.314-0.352-0.544-0.785-0.746-1.305l-0.006-0.015l-0.004-0.015c-4.349-17.721-8.708-35.395-13.081-53.02l0.231-0.058
		l0.184,0.152c-0.982,1.188-1.968,2.377-2.952,3.569l-0.184-0.152h0.238v43.542c-0.001,0.473-0.087,0.859-0.295,1.147
		c-0.104,0.143-0.24,0.256-0.399,0.33c-0.158,0.074-0.336,0.108-0.524,0.108c-0.215,0-0.445-0.043-0.693-0.124
		c-2.557-0.827-5.117-1.638-7.681-2.431c-0.56-0.172-1.011-0.479-1.313-0.905c-0.305-0.426-0.456-0.961-0.456-1.571V41.775
		c0.001-0.476,0.091-0.866,0.304-1.155c0.106-0.144,0.245-0.258,0.406-0.332c0.161-0.074,0.342-0.108,0.533-0.108
		c0.207,0,0.429,0.04,0.667,0.113c2.566,0.795,5.129,1.605,7.687,2.434c0.56,0.18,1.009,0.492,1.311,0.919
		c0.304,0.427,0.455,0.96,0.455,1.563v0.006h-0.077l0.077-0.002v0.002h-0.077l0.077-0.002v0.005v27.826h-0.238l-0.206-0.12
		c4.611-7.915,9.211-15.776,13.794-23.584l0.002-0.003l0.002-0.002c0.16-0.258,0.35-0.48,0.586-0.641
		c0.234-0.161,0.518-0.255,0.83-0.254c0.218,0,0.449,0.044,0.694,0.131c2.778,0.987,5.551,1.993,8.316,3.018
		c0.463,0.172,0.842,0.446,1.108,0.781c0.267,0.334,0.42,0.731,0.42,1.139c0.001,0.328-0.101,0.661-0.311,0.957l-0.194-0.137
		l0.209,0.114c-4.981,9.113-9.982,18.289-14.998,27.531l-0.21-0.114l0.23-0.063c5.816,21.303,11.61,42.691,17.382,64.167
		l-0.23,0.062l0.221-0.091c0.162,0.397,0.247,0.75,0.247,1.059c0.001,0.279-0.072,0.534-0.246,0.72
		c-0.086,0.092-0.193,0.162-0.313,0.207c-0.121,0.045-0.252,0.065-0.392,0.065c-0.234,0-0.493-0.056-0.782-0.165l0.001,0
		L462.273,147.597l0.084-0.223c0.25,0.095,0.458,0.135,0.614,0.134c0.093,0,0.167-0.014,0.225-0.035
		c0.085-0.033,0.136-0.078,0.179-0.149c0.042-0.073,0.071-0.181,0.071-0.331c0.001-0.219-0.064-0.52-0.212-0.877l-0.006-0.014
		l-0.004-0.015c-5.771-21.475-11.564-42.862-17.381-64.165l-0.025-0.092l0.046-0.084c5.017-9.243,10.018-18.419,14.999-27.532
		l0.007-0.012l0.007-0.011c0.155-0.221,0.224-0.451,0.224-0.683c0-0.287-0.107-0.581-0.315-0.843
		c-0.208-0.261-0.516-0.487-0.902-0.631c-2.764-1.024-5.534-2.03-8.31-3.016c-0.204-0.072-0.382-0.104-0.535-0.103
		c-0.222,0-0.397,0.06-0.563,0.171c-0.163,0.111-0.313,0.28-0.449,0.5l-0.203-0.126l0.206,0.121
		c-4.583,7.808-9.182,15.668-13.793,23.583l-0.444,0.762V45.22h0.238l-0.238,0.008v-0.02c-0.001-0.525-0.13-0.952-0.367-1.288
		c-0.237-0.334-0.589-0.586-1.068-0.741c-2.557-0.828-5.117-1.638-7.681-2.432c-0.203-0.063-0.38-0.091-0.526-0.091
		c-0.136,0-0.245,0.024-0.334,0.065c-0.132,0.062-0.23,0.16-0.309,0.33c-0.077,0.169-0.124,0.412-0.124,0.724v91.423
		c0.001,0.533,0.13,0.961,0.367,1.294c0.238,0.332,0.588,0.578,1.067,0.727c2.565,0.794,5.128,1.606,7.686,2.434
		c0.213,0.069,0.396,0.101,0.547,0.1c0.133,0,0.238-0.023,0.323-0.063c0.127-0.061,0.222-0.156,0.299-0.325
		c0.074-0.168,0.12-0.41,0.12-0.72V93.016l0.055-0.066c0.984-1.192,1.97-2.382,2.952-3.569l0.301-0.364l0.114,0.458
		c4.373,17.625,8.732,35.299,13.081,53.021l-0.231,0.057l0.222-0.086c0.192,0.491,0.397,0.87,0.658,1.161s0.577,0.504,1.021,0.665
		c2.803,1.007,5.6,2.035,8.392,3.081h0.001L462.273,147.597z"/>
</g>
</svg>
