<?xml version="1.0" encoding="utf-8"?>
<!-- Generator: Adobe Illustrator 16.0.0, SVG Export Plug-In . SVG Version: 6.00 Build 0)  -->
<!DOCTYPE svg PUBLIC "-//W3C//DTD SVG 1.1//EN" "http://www.w3.org/Graphics/SVG/1.1/DTD/svg11.dtd">
<svg version="1.1" id="Layer_1" xmlns="http://www.w3.org/2000/svg" xmlns:xlink="http://www.w3.org/1999/xlink" x="0px" y="0px"
	 width="12px" height="12px" viewBox="0 0 12 12" enable-background="new 0 0 12 12" xml:space="preserve">
<path fill="#FF8D0C" d="M7.91,7.156H7.5L7.346,7.029c0.488-0.592,0.795-1.338,0.795-2.188c0-1.852-1.486-3.343-3.333-3.343
	C2.987,1.5,1.5,2.991,1.5,4.843s1.487,3.342,3.333,3.342c0.82,0,1.59-0.31,2.179-0.797l0.153,0.129V7.93L9.73,10.5l0.77-0.771
	L7.91,7.156z M4.833,7.156c-1.282,0-2.308-1.028-2.308-2.313c0-1.285,1.025-2.314,2.308-2.314c1.282,0,2.308,1.028,2.308,2.314
	C7.141,6.129,6.115,7.156,4.833,7.156z"/>
<image overflow="visible" width="1394" height="139" xlink:href="3BE0CB45.jpg"  transform="matrix(0.0719 0 0 0.0719 -107.8545 -1.459)">
</image>
</svg>
